<!DOCTYPE svg PUBLIC "-//W3C//DTD SVG 1.1//EN" "http://www.w3.org/Graphics/SVG/1.1/DTD/svg11.dtd">
<!-- Uploaded to: SVG Repo, www.svgrepo.com, Transformed by: SVG Repo Mixer Tools -->
<svg version="1.1" id="Capa_1" xmlns="http://www.w3.org/2000/svg" xmlns:xlink="http://www.w3.org/1999/xlink" viewBox="-46 -46 552.00 552.00" xml:space="preserve" width="256px" height="256px" fill="#000000" stroke="#000000" stroke-width="0.0046">
<g id="SVGRepo_bgCarrier" stroke-width="0"/>
<g id="SVGRepo_tracerCarrier" stroke-linecap="round" stroke-linejoin="round" stroke="#000000" stroke-width="24.84"> <g> <rect x="130" y="45" style="fill:#B7D6CA;" width="30" height="40"/> <rect x="300" y="45" style="fill:#96B5A5;" width="30" height="40"/> <rect x="230" y="15" style="fill:#D5310E;" width="100" height="30"/> <rect x="130" y="15" style="fill:#F46A1A;" width="100" height="30"/> <rect x="50" y="55" style="fill:#B7D6CA;" width="40" height="30"/> <rect x="360" y="55" style="fill:#B7D6CA;" width="40" height="30"/> <path style="fill:#D5310E;" d="M410,85H230v80h33.333v66.667H330v66.667h-66.667V365H230v80h180c27.5,0,50-22.5,50-50V135 C460,107.5,437.5,85,410,85z"/> <path style="fill:#F46A1A;" d="M196.667,365v-66.667H130v-66.667h66.667V165H230V85H50c-27.5,0-50,22.5-50,50v260 c0,27.5,12.5,50,40,50h190v-80H196.667z"/> <polygon style="fill:#FFF6D6;" points="263.333,365 263.333,298.333 330,298.333 330,231.667 263.333,231.667 263.333,165 230,165 230,365 "/> <polygon style="fill:#FFFFFF;" points="196.667,231.667 130,231.667 130,298.333 196.667,298.333 196.667,365 230,365 230,165 196.667,165 "/> </g> </g>
<g id="SVGRepo_iconCarrier"> <g> <rect x="130" y="45" style="fill:#B7D6CA;" width="30" height="40"/> <rect x="300" y="45" style="fill:#96B5A5;" width="30" height="40"/> <rect x="230" y="15" style="fill:#D5310E;" width="100" height="30"/> <rect x="130" y="15" style="fill:#F46A1A;" width="100" height="30"/> <rect x="50" y="55" style="fill:#B7D6CA;" width="40" height="30"/> <rect x="360" y="55" style="fill:#B7D6CA;" width="40" height="30"/> <path style="fill:#D5310E;" d="M410,85H230v80h33.333v66.667H330v66.667h-66.667V365H230v80h180c27.5,0,50-22.5,50-50V135 C460,107.5,437.5,85,410,85z"/> <path style="fill:#F46A1A;" d="M196.667,365v-66.667H130v-66.667h66.667V165H230V85H50c-27.5,0-50,22.5-50,50v260 c0,27.5,12.5,50,40,50h190v-80H196.667z"/> <polygon style="fill:#FFF6D6;" points="263.333,365 263.333,298.333 330,298.333 330,231.667 263.333,231.667 263.333,165 230,165 230,365 "/> <polygon style="fill:#FFFFFF;" points="196.667,231.667 130,231.667 130,298.333 196.667,298.333 196.667,365 230,365 230,165 196.667,165 "/> </g> </g>
</svg>