<?xml version="1.0" encoding="utf-8"?>
<!-- Generator: Adobe Illustrator 27.5.0, SVG Export Plug-In . SVG Version: 6.00 Build 0)  -->
<svg version="1.1" id="Layer_1" xmlns="http://www.w3.org/2000/svg" xmlns:xlink="http://www.w3.org/1999/xlink" x="0px" y="0px"
	 viewBox="0 0 450 450" style="enable-background:new 0 0 450 450;" xml:space="preserve">
<g>
	<g>
		<g>
			<polygon style="fill:#05D4F5;" points="258.162,392.32 182.006,348.39 234.787,318.964 235.293,319.87 184.11,348.406 
				258.681,391.421 			"/>
		</g>
		<g>
			<polygon style="fill:#05D4F5;" points="149.086,348.366 148.826,348.216 95.341,317.336 95.86,316.438 149.084,347.167 
				222.508,304.487 223.03,305.385 			"/>
		</g>
		<g>
			
				<rect x="128.759" y="340.61" transform="matrix(0.8658 -0.5004 0.5004 0.8658 -146.3566 136.5396)" style="fill:#05D4F5;" width="105.24" height="1.037"/>
		</g>
		<g>
			<polygon style="fill:#05D4F5;" points="182.618,399.667 182.097,398.769 213.14,380.731 183.391,363.556 245.603,327.466 
				246.124,328.364 185.463,363.554 215.211,380.729 			"/>
		</g>
		<g>
			<path style="fill:#05D4F5;" d="M80.93,345.818l-0.513-0.902l44.319-25.198l28.293,16.487
				c14.371-8.51,59.819-35.382,60.953-35.543l0.073,0.514l0.133,0.501c-1.634,0.57-44.51,25.875-60.893,35.578l-0.262,0.155
				l-28.303-16.493L80.93,345.818z"/>
		</g>
		<path style="fill:#05D4F5;" d="M139.061,365.64c-1.767-1.042-4.647-1.069-6.433-0.059c-1.786,1.009-1.801,2.672-0.034,3.714
			c1.767,1.042,4.647,1.069,6.433,0.059C140.813,368.345,140.828,366.682,139.061,365.64z"/>
		<g>
			
				<rect x="210.897" y="364.517" transform="matrix(0.8658 -0.5004 0.5004 0.8658 -147.3049 180.869)" style="fill:#05D4F5;" width="105.24" height="1.037"/>
		</g>
		<path style="fill:#05D4F5;" d="M221.2,389.546c-1.767-1.042-4.647-1.069-6.433-0.06c-1.786,1.009-1.801,2.672-0.034,3.714
			c1.767,1.042,4.647,1.069,6.433,0.059C222.952,392.251,222.967,390.588,221.2,389.546z"/>
		<path style="fill:#05D4F5;" d="M260.821,390.045c-1.767-1.042-4.647-1.069-6.433-0.059c-1.786,1.009-1.801,2.672-0.035,3.714
			c1.767,1.042,4.647,1.069,6.433,0.06C262.573,392.75,262.588,391.087,260.821,390.045z"/>
		<path style="fill:#05D4F5;" d="M98.834,314.942c-1.767-1.042-4.647-1.069-6.433-0.06c-1.786,1.009-1.801,2.672-0.034,3.714
			c1.767,1.042,4.647,1.069,6.433,0.06C100.586,317.647,100.601,315.984,98.834,314.942z"/>
		<g>
			<polygon style="fill:#05D4F5;" points="149.699,323.541 149.438,323.39 95.954,292.511 96.473,291.612 149.697,322.341 
				223.121,279.661 223.643,280.559 			"/>
		</g>
		<path style="fill:#05D4F5;" d="M99.447,290.116c-1.767-1.042-4.647-1.069-6.433-0.059c-1.786,1.009-1.801,2.672-0.034,3.714
			c1.767,1.042,4.647,1.069,6.433,0.06C101.199,292.821,101.214,291.158,99.447,290.116z"/>
		<path style="fill:#05D4F5;" d="M85.21,342.864c-1.767-1.042-4.647-1.069-6.433-0.059c-1.786,1.009-1.801,2.672-0.034,3.714
			c1.767,1.042,4.647,1.069,6.433,0.059C86.961,345.569,86.977,343.905,85.21,342.864z"/>
		<path style="fill:#05D4F5;" d="M185.591,397.391c-1.767-1.042-4.647-1.069-6.433-0.06c-1.786,1.009-1.801,2.672-0.034,3.714
			c1.767,1.042,4.647,1.069,6.433,0.059C187.343,400.096,187.358,398.433,185.591,397.391z"/>
	</g>
	<g>
		<g>
			<path style="fill:#05D4F5;" d="M372.526,118.73l-6.994-4.038c-0.551,1.85-1.308,3.471-2.251,4.861l4.728,8.233l-10.098,5.799
				l-4.792-8.35c-1.718,0.082-3.552-0.127-5.476-0.641l-0.043,7.597l-14.212-8.25l0.04-7.897c-1.882-1.768-3.668-3.728-5.323-5.828
				l-4.763,2.704l-9.98-17.451l5.041-2.863c-0.841-2.415-1.505-4.852-1.966-7.255l-6.95-4.058l0.12-16.393l7.378,4.305
				c0.576-1.681,1.337-3.156,2.254-4.422l-5.064-8.885l10.15-5.705l5.296,9.288c1.562-0.023,3.219,0.187,4.952,0.647l0.085-8.468
				l14.216,8.342l-0.085,8.657c1.722,1.62,3.365,3.395,4.904,5.298l5.201-2.889l9.924,17.483l-5.218,2.899
				c0.825,2.26,1.489,4.539,1.98,6.801l6.994,4.038L372.526,118.73z M340.685,111.689c9.026,5.211,16.368,0.969,16.398-9.468
				c0.029-10.437-7.264-23.123-16.291-28.334c-9.026-5.211-16.368-0.975-16.398,9.461
				C324.365,93.785,331.659,106.478,340.685,111.689z"/>
		</g>
		<g>
			<path style="fill:#05D4F5;" d="M313.757,113.337l-4.666-2.694c-0.366,1.232-0.872,2.319-1.501,3.244l3.155,5.496l-6.742,3.87
				l-3.198-5.577c-1.145,0.059-2.368-0.08-3.655-0.429l-0.027,5.076l-9.487-5.505l0.027-5.272c-1.257-1.184-2.445-2.488-3.554-3.889
				l-3.179,1.803l-6.658-11.647l3.363-1.912c-0.562-1.612-1.004-3.232-1.314-4.841l-4.638-2.705l0.083-10.945l4.92,2.873
				c0.386-1.12,0.895-2.104,1.508-2.946l-3.381-5.934l6.774-3.81l3.535,6.202c1.041-0.018,2.149,0.127,3.305,0.432l0.056-5.654
				l9.487,5.564l-0.056,5.782c1.153,1.083,2.247,2.269,3.276,3.536l3.471-1.928l6.626,11.671l-3.486,1.932
				c0.55,1.509,0.996,3.031,1.323,4.539l4.666,2.694L313.757,113.337z M292.773,105.405c4.615,2.664,8.369,0.497,8.384-4.837
				c0.015-5.338-3.715-11.827-8.329-14.491c-4.618-2.666-8.373-0.499-8.388,4.839C284.425,96.25,288.155,102.739,292.773,105.405z"
				/>
		</g>
		<g>
			<path style="fill:#05D4F5;" d="M336.898,146.254l-2.775-1.602c-0.218,0.733-0.519,1.379-0.892,1.93l1.877,3.269l-4.011,2.302
				l-1.902-3.317c-0.681,0.035-1.409-0.047-2.174-0.255l-0.016,3.019l-5.643-3.275l0.016-3.136c-0.748-0.704-1.455-1.48-2.114-2.313
				l-1.891,1.072l-3.961-6.928l2-1.137c-0.334-0.959-0.597-1.923-0.782-2.88l-2.759-1.609l0.049-6.51l2.927,1.709
				c0.23-0.666,0.533-1.252,0.897-1.753l-2.011-3.53l4.029-2.266l2.103,3.689c0.619-0.011,1.278,0.075,1.966,0.257l0.033-3.364
				l5.643,3.31l-0.033,3.439c0.686,0.644,1.336,1.349,1.949,2.103l2.064-1.147l3.942,6.942l-2.074,1.15
				c0.327,0.898,0.593,1.803,0.787,2.7l2.775,1.602L336.898,146.254z"/>
		</g>
	</g>
	<g>
		<path style="fill:#EBEBF1;" d="M259.604,151.678c-0.008-2.785-1.461-5.885-3.245-6.922l-0.808-0.469
			c-0.719-0.418-1.383-0.437-1.918-0.128c-1.9,1.112-3.722,2.979-5.106,5.308c-1.357,2.283-2.295,5.008-2.212,8.07
			c0.037,0.605,0.383,1.148,1.059,1.54l0.808,0.469c-0.02-0.324-0.023-0.653-0.013-0.987v0c-0.01,0.334-0.007,0.664,0.013,0.988
			c1.784,1.037,5.195,0.641,7.616-0.885C255.638,156.137,257.406,152.938,259.604,151.678z"/>
		<g style="enable-background:new    ;">
			<g style="enable-background:new    ;">
				<defs>
					<path id="SVGID_1_" style="enable-background:new    ;" d="M251.063,204.035c-0.125-0.081-0.3-0.179-0.418-0.27
						c-0.206-0.158-0.485-0.367-0.663-0.556c-0.552-0.589-0.667-0.731-1.093-1.493c-0.129-0.231-0.379-0.818-0.493-1.25
						c-0.143-0.545-0.209-0.794-0.286-1.711c0.037,0.615,0.383,1.163,1.06,1.556C249.281,202.13,249.985,203.408,251.063,204.035z"
						/>
				</defs>
				<use xlink:href="#SVGID_1_"  style="overflow:visible;fill:#B7B6E3;"/>
				<clipPath id="SVGID_00000023240476858793327500000013977987835338951073_">
					<use xlink:href="#SVGID_1_"  style="overflow:visible;"/>
				</clipPath>
				<g style="clip-path:url(#SVGID_00000023240476858793327500000013977987835338951073_);enable-background:new    ;">
					<path style="fill:#B7B6E3;" d="M251.063,204.035c-1.833-1.182-2.744-2.81-2.952-5.279c0.037,0.615,0.383,1.163,1.06,1.556
						C249.281,202.13,249.985,203.408,251.063,204.035z"/>
				</g>
			</g>
			<g style="enable-background:new    ;">
				<defs>
					<path id="SVGID_00000001648694164734026660000013438187793014958510_" style="enable-background:new    ;" d="M251.871,204.504
						l-0.808-0.469c-1.079-0.627-1.783-1.905-1.893-3.723l0.807,0.469C250.088,202.599,250.792,203.877,251.871,204.504z"/>
				</defs>
				<use xlink:href="#SVGID_00000001648694164734026660000013438187793014958510_"  style="overflow:visible;fill:#B7B6E3;"/>
				<clipPath id="SVGID_00000114787001778325705630000002880885008679248521_">
					<use xlink:href="#SVGID_00000001648694164734026660000013438187793014958510_"  style="overflow:visible;"/>
				</clipPath>
				<g style="clip-path:url(#SVGID_00000114787001778325705630000002880885008679248521_);enable-background:new    ;">
					<path style="fill:#B7B6E3;" d="M251.871,204.504l-0.808-0.469c-1.079-0.627-1.783-1.905-1.893-3.723l0.807,0.469
						C250.088,202.599,250.792,203.877,251.871,204.504z"/>
				</g>
			</g>
			<g style="enable-background:new    ;">
				<g style="enable-background:new    ;">
					<path style="fill:#919DD6;" d="M264.1,194.878c-0.566,7.051-7.309,12.359-12.229,9.626c-1.079-0.627-1.783-1.904-1.893-3.723
						c1.784,1.037,5.193,0.6,7.612-0.975c0.078,1.262,1.016,1.73,2.154,1.075c1.143-0.662,2.074-2.209,2.141-3.462
						C263.291,196.681,264.055,195.74,264.1,194.878z"/>
				</g>
			</g>
			<g style="enable-background:new    ;">
				<g>
					<path style="fill:#919DD6;" d="M261.885,197.419l1.561-43.264c1.418-0.714,2.182-1.638,2.213-2.49l-0.078,2.161l-0.078,2.161
						l-0.078,2.161l-0.078,2.16l-0.078,2.16l-0.078,2.16l-0.078,2.16l-0.078,2.159l-0.078,2.16l-0.078,2.159l-0.078,2.159
						l-0.078,2.159l-0.078,2.159l-0.078,2.159l-0.078,2.159l-0.078,2.158l-0.078,2.158l-0.078,2.159l-0.078,2.159l-0.078,2.158
						C264.069,195.723,263.304,196.674,261.885,197.419z"/>
				</g>
			</g>
			<g style="enable-background:new    ;">
				<g style="enable-background:new    ;">
					<path style="fill:#DAD9E8;" d="M247.375,159.077l1.796,41.234c-0.688-0.4-1.034-0.96-1.061-1.587l-0.09-2.059l-0.09-2.06
						l-0.09-2.06l-0.089-2.06l-0.09-2.06l-0.09-2.06l-0.09-2.061l-0.09-2.061l-0.09-2.061l-0.09-2.061l-0.09-2.061l-0.09-2.061
						l-0.09-2.062l-0.09-2.061l-0.09-2.062l-0.09-2.062l-0.09-2.061l-0.09-2.062l-0.09-2.062l-0.09-2.062
						C246.341,158.123,246.687,158.677,247.375,159.077z"/>
				</g>
			</g>
			<g>
				<g style="enable-background:new    ;">
					<path style="fill:#DAD9E8;" d="M255.621,144.247c-0.042,0.011-0.101-0.002-0.144-0.002c-0.691-0.377-1.328-0.385-1.844-0.086
						c0.196-0.105,0.458-0.245,0.653-0.35c0.262-0.118,0.611-0.278,0.878-0.384l0.649-0.221c0.291-0.075,0.679-0.174,0.973-0.233
						l0.635-0.086c0.312-0.017,0.73-0.031,1.042-0.025l0.607,0.055c0.317,0.059,0.739,0.149,1.05,0.233l0.559,0.203
						c0.219,0.105,0.513,0.242,0.725,0.36C259.928,142.854,257.888,142.959,255.621,144.247z"/>
				</g>
			</g>
			<g>
				<polygon style="fill:#DAD9E8;" points="249.978,200.781 249.171,200.311 247.375,159.077 248.182,159.546 				"/>
			</g>
			<g style="enable-background:new    ;">
				<g>
					<path style="fill:#C4C3EC;" d="M256.359,144.756l-0.882-0.511c2.267-1.288,4.45-1.391,5.927-0.533l0.808,0.47
						c-1.476-0.858-3.516-0.752-5.783,0.535L256.359,144.756z"/>
				</g>
			</g>
			<g>
				<path style="fill:#B7B6E3;" d="M259.604,151.678c2.202-1.28,3.982-0.13,3.841,2.477c-0.522,14.484-1.042,28.874-1.561,43.264
					c-0.067,1.253-0.998,2.8-2.141,3.462c-1.139,0.655-2.077,0.188-2.154-1.075c-0.594-13.655-1.193-27.4-1.791-41.145
					C255.638,156.137,257.406,152.938,259.604,151.678z"/>
			</g>
			<g style="enable-background:new    ;">
				<g>
					<path style="fill:#DAD9E8;" d="M255.799,158.662l1.791,41.145c-2.419,1.575-5.828,2.011-7.612,0.975l-1.795-41.234
						C249.967,160.583,253.377,160.187,255.799,158.662z"/>
				</g>
			</g>
			<path style="fill:#EBEBF1;" d="M246.316,157.536c-0.006-0.225-0.023-0.525-0.02-0.751c0.004-0.279,0.012-0.651,0.042-0.928
				c0.049-0.454,0.137-1.056,0.216-1.506c0.045-0.256,0.134-0.591,0.197-0.844c0.129-0.52,0.531-1.915,1.469-3.629
				c0.736-1.345,1.673-2.537,2.253-3.15c0.535-0.564,1.529-1.616,3.161-2.571c0.535-0.309,1.199-0.29,1.918,0.128
				c-4.748,2.741-8.495,9.52-8.177,14.79C246.699,158.684,246.353,158.141,246.316,157.536z"/>
			<path style="fill:#EBEBF1;" d="M255.799,158.662c-2.421,1.525-5.832,1.921-7.616,0.885c-0.318-5.27,3.429-12.049,8.177-14.79
				c1.784,1.037,3.237,4.137,3.245,6.922C257.406,152.938,255.638,156.137,255.799,158.662z"/>
			<path style="fill:#C4C3EC;" d="M265.655,150.433c-0.016-0.313-0.058-0.729-0.113-1.037c-0.205-1.159-0.446-1.743-0.696-2.287
				c-0.137-0.299-0.355-0.683-0.541-0.954c-0.206-0.299-0.521-0.668-0.763-0.938c-0.219-0.244-0.571-0.511-0.83-0.713
				c-0.141-0.11-0.35-0.227-0.5-0.323c-1.492-0.867-3.558-0.75-5.852,0.575c1.784,1.037,3.237,4.137,3.245,6.922
				c2.202-1.28,3.982-0.13,3.841,2.477c1.405-0.708,2.168-1.622,2.212-2.466C265.668,151.312,265.673,150.809,265.655,150.433z"/>
		</g>
		<path style="fill:#DAD9E8;" d="M259.604,151.678c-0.006-2.125-0.854-4.434-2.048-5.869c-0.001,0.034-0.002,0.079-0.005,0.113
			c-0.057,0.673-0.48,1.55-0.826,2.167c-0.162,0.27-0.324,0.54-0.486,0.811c-0.498,0.83-0.996,1.661-1.494,2.492
			c-0.613,1.023-1.227,2.047-1.841,3.07c-0.501,0.835-1.002,1.67-1.502,2.506c-0.136,0.227-0.265,0.462-0.41,0.683
			c-0.41,0.628-1.395,0.929-2.107,0.88c-0.636-0.044-1.28-0.343-1.706-0.823c-0.182-0.205-0.209-0.562-0.26-0.824
			c-0.07-0.364-0.101-0.734-0.103-1.105c-0.004-0.594,0.063-1.187,0.176-1.77c0.124-0.64,0.303-1.268,0.522-1.882
			c0.231-0.648,0.508-1.28,0.824-1.891c0.321-0.622,0.683-1.223,1.083-1.797c0.394-0.564,0.826-1.101,1.299-1.6
			c0.451-0.475,0.94-0.917,1.471-1.301c0.496-0.359,1.031-0.67,1.6-0.899c0.538-0.216,1.107-0.357,1.686-0.393
			c-0.691-0.377-1.327-0.385-1.843-0.086c-0.236,0.138-0.541,0.338-0.772,0.486l-0.615,0.448c-0.2,0.156-0.456,0.376-0.651,0.538
			l-0.563,0.522c-0.172,0.169-0.391,0.404-0.559,0.578l-0.507,0.582c-0.15,0.181-0.339,0.43-0.485,0.615l-0.45,0.63
			c-0.13,0.192-0.294,0.456-0.42,0.651l-0.39,0.669c-0.113,0.204-0.252,0.482-0.36,0.689l-0.326,0.702
			c-0.095,0.217-0.209,0.512-0.298,0.731l-0.256,0.728c-0.075,0.233-0.162,0.547-0.231,0.782l-0.177,0.747
			c-0.052,0.253-0.106,0.592-0.15,0.846l-0.086,0.756c-0.021,0.278-0.032,0.65-0.042,0.928c0.006,0.225,0.014,0.525,0.02,0.751
			c0.037,0.605,0.383,1.148,1.059,1.54l0.808,0.469c1.784,1.037,5.195,0.641,7.616-0.885
			C255.638,156.137,257.406,152.938,259.604,151.678z"/>
	</g>
	<g>
		<path style="fill:#E4E3EE;" d="M173.869,238.564c-0.05-0.013-0.099-0.022-0.147-0.027c-0.028-0.003-0.056-0.006-0.083-0.006
			c-0.051,0-0.1,0.006-0.148,0.015c-0.023,0.004-0.046,0.006-0.068,0.012c-0.069,0.019-0.137,0.045-0.201,0.082
			c0.073-0.042,0.156-0.086,0.241-0.132c0.092-0.05,0.186-0.099,0.281-0.148c0.101-0.052,0.2-0.104,0.288-0.15l0.735-0.33
			c0.246-0.101,0.579-0.22,0.828-0.314l0.802-0.254c0.254-0.073,0.596-0.155,0.851-0.221l0.283-0.059
			c0.15-0.033,0.301-0.064,0.453-0.094l0.112-0.023c0.01-0.002,0.021-0.003,0.032-0.005c2.103-0.393,4.444-0.454,6.803-0.026
			l0.199,0.031c0.261,0.048,0.607,0.127,0.868,0.181l0.828,0.217c0.258,0.075,0.597,0.19,0.852,0.272l0.775,0.297
			c0.59,0.249,0.626,0.268,1.54,0.762l0,0l7.3,4.242l7.3,4.242l7.3,4.242l7.3,4.242l7.3,4.242l7.3,4.242l7.3,4.242l7.3,4.242
			l7.3,4.242l7.3,4.242l7.3,4.242l7.3,4.242l7.3,4.242l7.3,4.242l7.3,4.242l7.3,4.242l7.3,4.242l7.3,4.242l7.3,4.242l7.3,4.242
			c-0.052-0.031-0.107-0.055-0.163-0.074l-145.959-84.822c-0.255-0.101-0.543-0.081-0.851,0.097c-4.056-2.361-10.757-2.361-14.839,0
			c-0.075-0.044-0.149-0.074-0.221-0.1C173.928,238.58,173.898,238.572,173.869,238.564z"/>
		<g style="enable-background:new    ;">
			<path style="fill:#E4E3EE;" d="M189.992,238.644c-0.282-0.164-0.616-0.16-0.973,0.046c-4.056-2.361-10.757-2.361-14.839,0
				c-0.353-0.205-0.681-0.21-0.958-0.05c1.739-0.994,3.341-1.383,4.026-1.549c0.606-0.147,2.245-0.49,4.366-0.489
				c2.128,0,3.774,0.346,4.383,0.494c0.266,0.065,0.622,0.149,0.882,0.232c0.476,0.153,1.106,0.373,1.573,0.554
				c0.259,0.101,0.592,0.262,0.841,0.385C189.506,238.372,189.782,238.531,189.992,238.644z"/>
			<g style="enable-background:new    ;">
				<g>
					<path style="fill:#E4E3EE;" d="M112.274,274.43l61.904-35.74c-0.058-0.034-0.115-0.061-0.171-0.085l-3.095,1.787l-3.096,1.787
						l-3.095,1.787l-3.095,1.787l-3.096,1.787l-3.095,1.787l-3.095,1.787l-3.095,1.787l-3.095,1.787l-3.095,1.787l-3.095,1.787
						l-3.095,1.787l-3.095,1.787l-3.095,1.787l-3.095,1.787l-3.095,1.787l-3.095,1.787l-3.095,1.787l-3.095,1.787l-3.095,1.787
						C112.16,274.369,112.217,274.397,112.274,274.43z"/>
					<path style="fill:#E4E3EE;" d="M112.104,274.346l3.095-1.787l3.095-1.787l3.095-1.787l3.095-1.787l3.095-1.787l3.095-1.787
						l3.095-1.787l3.095-1.787l3.095-1.787l3.095-1.787l3.095-1.787l3.095-1.787l3.095-1.787l3.095-1.787l3.095-1.787l3.096-1.787
						l3.095-1.787l3.095-1.787l3.096-1.787l3.095-1.787c-0.288-0.117-0.555-0.099-0.787,0.034l-6.191,3.574l-6.191,3.574
						l-6.19,3.574l-6.191,3.574l-6.191,3.574l-6.19,3.574l-6.191,3.574l-6.19,3.574l-6.19,3.574l-3.095,1.787l-3.095,1.787
						C111.549,274.246,111.816,274.228,112.104,274.346z"/>
				</g>
			</g>
			<g>
				<defs>
					<path id="SVGID_00000034052792077455010180000016608761683115711143_" d="M106.648,282.899c0.02,0.632,0.022,0.713,0.072,1.095
						c0.077,0.592,0.205,1.06,0.211,1.079c0.157,0.568,0.404,1.329,0.922,2.182c0.55,0.907,1.139,1.497,1.306,1.656
						c0.293,0.279,0.7,0.637,1.023,0.881c0.313,0.237,0.757,0.515,1.091,0.72c-0.507-0.295-0.846-1.132-0.85-2.306
						C107.912,286.746,106.654,284.824,106.648,282.899z"/>
				</defs>
				<use xlink:href="#SVGID_00000034052792077455010180000016608761683115711143_"  style="overflow:visible;fill:#919DD6;"/>
				<clipPath id="SVGID_00000164486818577751261960000000078412805159127437_">
					<use xlink:href="#SVGID_00000034052792077455010180000016608761683115711143_"  style="overflow:visible;"/>
				</clipPath>
				<g style="clip-path:url(#SVGID_00000164486818577751261960000000078412805159127437_);">
					<path style="fill:#919DD6;" d="M106.648,282.899c0.134,4.305,2.543,6.33,4.626,7.614c-0.507-0.295-0.846-1.132-0.85-2.306
						C107.912,286.746,106.654,284.824,106.648,282.899z"/>
				</g>
			</g>
			<g style="enable-background:new    ;">
				<g>
					<path style="fill:#B7B6E3;" d="M106.646,282.073l0.002,0.827c0.006,1.925,1.263,3.847,3.776,5.307l-0.002-0.827
						C107.909,285.92,106.652,283.998,106.646,282.073z"/>
				</g>
			</g>
			<g>
				<defs>
					<path id="SVGID_00000155862895559218795170000004878088056989215875_" d="M335.991,323.489
						c-48.667-28.283-97.332-56.563-145.999-84.846c-0.282-0.164-0.616-0.16-0.973,0.046l145.999,84.846
						C335.375,323.329,335.709,323.325,335.991,323.489z"/>
				</defs>
				<use xlink:href="#SVGID_00000155862895559218795170000004878088056989215875_"  style="overflow:visible;fill:#C3CBE3;"/>
				<clipPath id="SVGID_00000176764103640462841550000010700454648902484125_">
					<use xlink:href="#SVGID_00000155862895559218795170000004878088056989215875_"  style="overflow:visible;"/>
				</clipPath>
				<g style="clip-path:url(#SVGID_00000176764103640462841550000010700454648902484125_);">
					<path style="fill:#E4E3EE;" d="M189.018,238.69l145.999,84.846c0.291-0.168,0.566-0.202,0.811-0.12L189.829,238.57
						C189.584,238.488,189.309,238.522,189.018,238.69z"/>
				</g>
			</g>
			<g style="enable-background:new    ;">
				<g>
					<path style="fill:#919DD6;" d="M335.947,339.622c1.151-0.712,4.655-2.879,4.671-7.693c0.006,1.95-1.274,3.903-3.836,5.382
						C336.786,338.491,336.452,339.331,335.947,339.622z"/>
				</g>
			</g>
			<g style="enable-background:new    ;">
				<g>
					<path style="fill:#B7B6E3;" d="M336.78,336.485l0.002,0.827c2.562-1.479,3.842-3.432,3.836-5.382l-0.002-0.827
						C340.622,333.053,339.342,335.006,336.78,336.485z"/>
				</g>
			</g>
			<g style="enable-background:new    ;">
				<g style="enable-background:new    ;">
					<path style="fill:#E4E3EE;" d="M340.616,331.103c-0.104-3.343-1.574-5.762-4.625-7.614c-0.282-0.164-0.616-0.16-0.973,0.047
						c4.063,2.357,4.041,6.238-0.048,8.595c0.995,0.578,1.806,2.528,1.811,4.354C339.342,335.006,340.622,333.053,340.616,331.103z"
						/>
					<path style="fill:#B7B6E3;" d="M335.828,323.416c5.742,3.308,6.191,9.462,0.891,12.194c0.039,0.291,0.06,0.585,0.061,0.876
						c2.562-1.479,3.842-3.432,3.836-5.382c-0.004-0.149-0.011-0.348-0.016-0.497c-0.056-0.635-0.059-0.673-0.129-1.062
						l-0.104-0.485c-0.049-0.178-0.113-0.416-0.17-0.592l-0.172-0.477c-0.079-0.183-0.182-0.428-0.268-0.608l-0.251-0.473
						c-0.122-0.198-0.286-0.463-0.417-0.655l-0.355-0.469c-0.207-0.237-0.488-0.548-0.709-0.772l-0.505-0.455
						c-0.659-0.516-0.796-0.623-1.53-1.068C335.938,323.459,335.884,323.434,335.828,323.416z"/>
				</g>
			</g>
			<g>
				<defs>
					<path id="SVGID_00000047764542583162078620000011932573391241281211_" d="M111.274,290.513l14.6,8.485l14.6,8.485l14.6,8.484
						l14.6,8.485l14.6,8.485l14.6,8.485l14.6,8.485l14.6,8.485l14.6,8.485l14.6,8.485c-0.507-0.295-0.846-1.132-0.849-2.307
						l-146-84.845C110.428,289.381,110.766,290.218,111.274,290.513z"/>
				</defs>
				<use xlink:href="#SVGID_00000047764542583162078620000011932573391241281211_"  style="overflow:visible;fill:#919DD6;"/>
				<clipPath id="SVGID_00000014633402500390618380000005810220229296884403_">
					<use xlink:href="#SVGID_00000047764542583162078620000011932573391241281211_"  style="overflow:visible;"/>
				</clipPath>
				<g style="clip-path:url(#SVGID_00000014633402500390618380000005810220229296884403_);enable-background:new    ;">
					<path style="fill:#919DD6;" d="M256.424,373.052l-146-84.845c0.004,1.174,0.342,2.012,0.849,2.306l14.6,8.485l14.6,8.485
						l14.6,8.484l14.6,8.485l14.6,8.485l14.6,8.485l14.6,8.485l14.6,8.485l14.6,8.485l14.6,8.485
						C256.766,375.064,256.427,374.226,256.424,373.052z"/>
				</g>
			</g>
			<g>
				<defs>
					<path id="SVGID_00000142857265632616858070000000863357579407725217_" d="M274.043,375.363l6.19-3.574l6.19-3.574l6.19-3.574
						l6.191-3.574l6.19-3.574l6.191-3.574l6.19-3.574l6.19-3.574l6.191-3.574l6.19-3.574c0.505-0.291,0.838-1.131,0.835-2.31
						l-61.904,35.74C274.882,374.232,274.548,375.071,274.043,375.363z"/>
				</defs>
				<use xlink:href="#SVGID_00000142857265632616858070000000863357579407725217_"  style="overflow:visible;fill:#919DD6;"/>
				<clipPath id="SVGID_00000109747435374209918480000005321521652397957557_">
					<use xlink:href="#SVGID_00000142857265632616858070000000863357579407725217_"  style="overflow:visible;"/>
				</clipPath>
				<g style="clip-path:url(#SVGID_00000109747435374209918480000005321521652397957557_);">
					<path style="fill:#919DD6;" d="M336.782,337.312l-61.904,35.74c0.004,1.18-0.33,2.019-0.835,2.311l6.19-3.574l6.19-3.574
						l6.19-3.574l6.191-3.574l6.19-3.574l6.191-3.574l6.19-3.574l6.19-3.574l6.191-3.574l6.19-3.574
						C336.452,339.331,336.786,338.491,336.782,337.312z"/>
				</g>
			</g>
			<g>
				<polygon style="fill:#B7B6E3;" points="110.422,287.38 110.424,288.207 256.424,373.052 256.422,372.225 				"/>
			</g>
			<g>
				<polygon style="fill:#B7B6E3;" points="274.876,372.225 274.878,373.052 336.782,337.312 336.78,336.485 				"/>
			</g>
			<g style="enable-background:new    ;">
				<path style="fill:#E4E3EE;" d="M258.284,367.871l-146-84.845c-0.144,0.083-0.283,0.194-0.417,0.329l146,84.845
					C258,368.066,258.14,367.954,258.284,367.871z"/>
			</g>
			<g style="enable-background:new    ;">
				<g style="enable-background:new    ;">
					<path style="fill:#E4E3EE;" d="M334.969,332.131l-61.904,35.74c0.139,0.081,0.275,0.188,0.404,0.319l61.904-35.741
						C335.244,332.319,335.108,332.212,334.969,332.131z"/>
					<path style="fill:#E4E3EE;" d="M335.374,332.449l-61.904,35.741c0.328,0.328,0.622,0.801,0.856,1.353l61.904-35.74
						C335.996,333.251,335.702,332.778,335.374,332.449z"/>
					<path style="fill:#E4E3EE;" d="M336.23,333.803l-61.904,35.74c0.231,0.546,0.403,1.17,0.489,1.807l61.904-35.74
						C336.633,334.972,336.461,334.349,336.23,333.803z"/>
					<path style="fill:#B7B6E3;" d="M336.719,335.61l-61.904,35.74c0.039,0.291,0.06,0.585,0.061,0.875l61.904-35.74
						C336.779,336.194,336.758,335.901,336.719,335.61z"/>
				</g>
			</g>
			<g>
				<defs>
					<path id="SVGID_00000039113686728752192150000012725924880016619435_" d="M257.273,375.358c0.21,0.113,0.486,0.272,0.699,0.377
						c0.249,0.123,0.583,0.284,0.842,0.384c0.466,0.181,1.096,0.401,1.573,0.554c0.26,0.083,0.616,0.167,0.882,0.232
						c0.609,0.149,2.256,0.494,4.383,0.495c2.121,0,3.76-0.342,4.367-0.489c0.257-0.062,0.6-0.142,0.851-0.221
						c0.479-0.152,1.113-0.368,1.582-0.548c0.029-0.011,0.712-0.276,1.593-0.779c0.505-0.291,0.838-1.131,0.835-2.31
						c-5.091,2.939-13.396,2.939-18.454,0C256.427,374.226,256.766,375.064,257.273,375.358z"/>
				</defs>
				<use xlink:href="#SVGID_00000039113686728752192150000012725924880016619435_"  style="overflow:visible;fill:#919DD6;"/>
				<clipPath id="SVGID_00000060743232878630334260000007357251622475048072_">
					<use xlink:href="#SVGID_00000039113686728752192150000012725924880016619435_"  style="overflow:visible;"/>
				</clipPath>
				<g style="clip-path:url(#SVGID_00000060743232878630334260000007357251622475048072_);">
					<path style="fill:#919DD6;" d="M257.273,375.358c5.931,3.198,12.851,2.244,16.771,0.004c0.505-0.291,0.838-1.131,0.835-2.31
						c-5.091,2.939-13.396,2.939-18.454,0C256.427,374.226,256.766,375.064,257.273,375.358z"/>
				</g>
			</g>
			<g style="enable-background:new    ;">
				<g>
					<path style="fill:#B7B6E3;" d="M256.422,372.225l0.002,0.827c5.058,2.939,13.363,2.939,18.454,0l-0.002-0.827
						C269.784,375.165,261.48,375.165,256.422,372.225z"/>
				</g>
			</g>
			<g style="enable-background:new    ;">
				<g>
					<path style="fill:#E4E3EE;" d="M256.481,371.349c0.2-1.537,0.903-2.992,1.745-3.478c4.056,2.361,10.757,2.361,14.84,0
						c0.836,0.486,1.541,1.943,1.748,3.48C269.735,374.245,261.524,374.244,256.481,371.349z"/>
					<path style="fill:#B7B6E3;" d="M274.813,371.352c0.039,0.29,0.062,0.584,0.063,0.874c-5.091,2.94-13.396,2.94-18.454,0
						c-0.001-0.291,0.021-0.585,0.059-0.876C261.524,374.244,269.735,374.245,274.813,371.352z"/>
					<path style="fill:#E4E3EE;" d="M273.065,367.871c-4.083,2.361-10.784,2.361-14.84,0c-0.842,0.486-1.544,1.941-1.745,3.478
						c-0.019-0.011-0.04-0.02-0.059-0.031c-0.005-1.826,0.803-3.776,1.804-4.354c4.056,2.361,10.757,2.361,14.84,0
						c0.994,0.578,1.805,2.527,1.811,4.354c-0.02,0.012-0.043,0.022-0.063,0.033C274.606,369.814,273.901,368.358,273.065,367.871z"
						/>
				</g>
			</g>
			<g>
				<path style="fill:#E4E3EE;" d="M112.226,283.026c-4.062-2.357-4.041-6.239,0.049-8.596c20.635-11.913,41.27-23.827,61.904-35.74
					c4.082-2.361,10.783-2.361,14.839,0c0.646,0.376,1.292,0.751,1.938,1.126l-76.791,44.337
					C113.519,283.777,112.872,283.401,112.226,283.026z"/>
				
					<linearGradient id="SVGID_00000168095477048978201340000012419995676079356049_" gradientUnits="userSpaceOnUse" x1="98.8352" y1="210.9307" x2="253.8533" y2="325.4214">
					<stop  offset="0" style="stop-color:#4BAAE3"/>
					<stop  offset="0.1911" style="stop-color:#46A1E2"/>
					<stop  offset="0.4999" style="stop-color:#3789E1"/>
					<stop  offset="0.8858" style="stop-color:#2063DE"/>
					<stop  offset="1" style="stop-color:#1856DD"/>
				</linearGradient>
				<path style="fill:url(#SVGID_00000168095477048978201340000012419995676079356049_);" d="M190.956,239.816
					c48.02,27.906,96.041,55.813,144.061,83.719c4.063,2.357,4.041,6.238-0.048,8.595c-20.635,11.914-41.269,23.827-61.904,35.74
					c-4.083,2.361-10.784,2.361-14.84,0c-48.02-27.906-96.04-55.812-144.06-83.718L190.956,239.816z"/>
			</g>
		</g>
		<g>
			<path style="fill:#E4E3EE;" d="M111.867,283.355l146,84.845c-0.651,0.657-1.279,1.842-1.445,3.118l-145.985-84.287
				C110.513,285.576,111.127,284.102,111.867,283.355z"/>
			<path style="fill:#B7B6E3;" d="M256.484,371.354c-0.037,0.29-0.063,0.582-0.063,0.872L110.422,287.38
				c0-0.116,0.009-0.232,0.015-0.348L256.484,371.354z"/>
		</g>
		<g style="enable-background:new    ;">
			<path style="fill:#E4E3EE;" d="M111.317,274.38c-1.15,0.712-4.651,2.88-4.671,7.693c0.006,1.925,1.263,3.847,3.776,5.307
				c0.036-1.717,0.803-3.776,1.803-4.354c-4.062-2.357-4.041-6.239,0.049-8.596C111.922,274.225,111.594,274.22,111.317,274.38z"/>
		</g>
		<path style="fill:#B7B6E3;" d="M106.692,281.182c-0.011,0.18-0.026,0.357-0.027,0.545c0.005,1.924,1.262,3.846,3.774,5.306
			c-0.009,0.117-0.015,0.232-0.017,0.346c-2.513-1.46-3.771-3.382-3.776-5.307C106.648,281.765,106.663,281.469,106.692,281.182z"/>
		<g>
			<path style="fill:#00C4F5;" d="M223.735,325.829c-9.305,0-18.61-2.045-25.694-6.135c-7.003-4.043-10.859-9.463-10.859-15.262
				c0-5.798,3.857-11.218,10.859-15.261c14.168-8.18,37.22-8.18,51.389,0c7.003,4.043,10.859,9.463,10.859,15.261
				c0,5.799-3.856,11.219-10.859,15.262C242.345,323.784,233.04,325.829,223.735,325.829z M198.78,290.45
				c-6.526,3.768-10.12,8.734-10.12,13.982c0,5.248,3.594,10.214,10.12,13.982c13.76,7.945,36.15,7.945,49.911,0
				c6.526-3.768,10.12-8.734,10.12-13.982c0.001-5.248-3.594-10.213-10.12-13.982C234.93,282.505,212.54,282.505,198.78,290.45z"/>
		</g>
		<g>
			<path style="fill:#00C4F5;" d="M223.735,332.178c-12.123,0-24.245-2.664-33.474-7.993c-9.081-5.243-14.082-12.258-14.082-19.753
				c0-7.495,5.001-14.51,14.082-19.753c18.457-10.657,48.49-10.657,66.947,0c9.081,5.243,14.082,12.258,14.082,19.753
				c0,7.495-5.001,14.51-14.082,19.753C247.98,329.514,235.857,332.178,223.735,332.178z M223.735,278.143
				c-11.855,0-23.71,2.605-32.735,7.816c-8.604,4.968-13.343,11.528-13.343,18.473c0,6.945,4.739,13.506,13.343,18.474
				c18.049,10.421,47.42,10.421,65.469,0c8.604-4.968,13.343-11.529,13.343-18.474c0-6.945-4.738-13.505-13.343-18.473
				C247.445,280.748,235.589,278.143,223.735,278.143z"/>
		</g>
		<g>
			<path style="fill:#00C4F5;" d="M223.735,320.294c-6.85,0-13.699-1.505-18.913-4.516c-5.191-2.997-8.05-7.027-8.05-11.346
				c0-4.319,2.859-8.349,8.05-11.346c10.428-6.021,27.397-6.021,37.826,0c5.191,2.997,8.051,7.027,8.051,11.346
				c0,4.319-2.859,8.349-8.051,11.346C237.434,318.789,230.584,320.294,223.735,320.294z M205.561,294.366
				c-4.715,2.723-7.311,6.297-7.311,10.066c0,3.769,2.596,7.344,7.311,10.066c10.02,5.785,26.326,5.786,36.347,0
				c4.715-2.723,7.311-6.297,7.311-10.066c0-3.769-2.596-7.344-7.311-10.066C231.888,288.581,215.583,288.58,205.561,294.366z"/>
		</g>
		<g>
			<path style="fill:#09162E;" d="M175.806,243.462c1.4,0.808,1.405,2.116,0.012,2.92c-1.394,0.804-3.658,0.801-5.058-0.007
				c-1.4-0.808-1.405-2.116-0.012-2.92C172.141,242.651,174.406,242.654,175.806,243.462z"/>
			<path style="fill:#09162E;" d="M180.33,240.697c0.891,0.514,0.894,1.346,0.007,1.859c-0.887,0.512-2.328,0.51-3.219-0.004
				c-0.891-0.514-0.894-1.346-0.008-1.858C177.998,240.18,179.439,240.182,180.33,240.697z"/>
			<path style="fill:#01084E;" d="M151.009,260.107l5.064-2.924c0.994-0.574,0.99-1.514-0.008-2.09
				c-0.998-0.577-2.627-0.579-3.621-0.005l-5.064,2.924c-0.993,0.574-0.99,1.514,0.008,2.09
				C148.387,260.679,150.016,260.681,151.009,260.107z"/>
		</g>
		<path style="fill:#DAD9E8;" d="M279.111,370.817c0,0.665-0.468,1.473-1.045,1.808c-0.414,0.241-0.773,0.167-0.941-0.143
			c-0.069-0.118-0.103-0.271-0.103-0.458c0-0.67,0.468-1.478,1.044-1.814c0.148-0.084,0.286-0.128,0.409-0.138
			C278.849,370.043,279.111,370.32,279.111,370.817z"/>
		<path style="fill:#09162E;" d="M278.583,370.537c0,0.665-0.468,1.473-1.044,1.808c-0.148,0.084-0.286,0.128-0.414,0.138
			c-0.069-0.118-0.103-0.271-0.103-0.458c0-0.67,0.468-1.478,1.044-1.814c0.148-0.084,0.286-0.128,0.409-0.138
			C278.549,370.191,278.583,370.349,278.583,370.537z"/>
		<path style="fill:#DAD9E8;" d="M309.661,353.014c0,0.66-0.468,1.468-1.045,1.799l-2.883,1.665
			c-0.168,0.094-0.326,0.143-0.463,0.143c-0.188,0-0.345-0.084-0.444-0.237c-0.084-0.123-0.133-0.296-0.133-0.507
			c0-0.66,0.468-1.468,1.04-1.799l2.883-1.665c0.108-0.059,0.212-0.103,0.305-0.123c0.054-0.015,0.109-0.02,0.158-0.02
			C309.424,352.271,309.661,352.547,309.661,353.014z"/>
		<path style="fill:#09162E;" d="M309.055,352.797c0,0.661-0.468,1.469-1.039,1.799l-2.888,1.665
			c-0.103,0.064-0.207,0.104-0.3,0.123c-0.084-0.123-0.133-0.296-0.133-0.507c0-0.66,0.468-1.468,1.04-1.799l2.883-1.665
			c0.108-0.059,0.212-0.103,0.305-0.123C309.006,352.413,309.055,352.586,309.055,352.797z"/>
	</g>
	<g>
		<g>
			<path style="fill:#919DD6;" d="M267.984,216.949c-2.045-1.26-6.3-3.881-10.588-10.405c-4.092-6.226-5.048-11.826-5.407-13.934
				c0.087,0.607,0.553,1.126,1.428,1.448c1.151,8.058,6.733,16.653,13.261,20.422C266.675,215.642,267.145,216.465,267.984,216.949z
				"/>
		</g>
		<g>
			<path style="fill:#919DD6;" d="M266.679,214.481l2.233,1.29c-0.003,1.162,0.467,1.984,1.306,2.468l-0.223-0.129l-0.223-0.129
				l-0.223-0.129l-0.223-0.129l-0.223-0.129l-0.223-0.129l-0.223-0.129l-0.223-0.129l-0.223-0.129l-0.223-0.129
				C267.145,216.465,266.675,215.642,266.679,214.481z"/>
		</g>
		<g>
			<path style="fill:#919DD6;" d="M268.912,215.77l2.231,1.288c-0.003,1.162,0.467,1.984,1.306,2.468l-0.223-0.129l-0.223-0.129
				l-0.223-0.129l-0.223-0.129l-0.223-0.129l-0.223-0.129l-0.223-0.129l-0.223-0.129l-0.223-0.129l-0.223-0.129
				C269.379,217.755,268.909,216.932,268.912,215.77z"/>
		</g>
		<g>
			<defs>
				<path id="SVGID_00000010292272951490412800000001528050593576750981_" d="M314.022,199.333
					c-0.171,0.809-0.409,1.887-0.657,2.675c-0.251,0.796-0.661,1.834-1.007,2.593c-0.243,0.534-0.595,1.235-0.903,1.735
					c-0.217,0.351-0.492,0.829-0.723,1.171c-0.338,0.499-0.807,1.153-1.173,1.632c-1.234,1.619-2.953,3.238-3.42,3.638
					c-1.162,0.996-1.513,1.297-2.505,2.014c-1.273,0.921-2.276,1.509-2.758,1.792c2.74-1.593,4.691-4.58,5.444-8.806
					C310.785,205.182,313.548,201.992,314.022,199.333z"/>
			</defs>
			<use xlink:href="#SVGID_00000010292272951490412800000001528050593576750981_"  style="overflow:visible;fill:#919DD6;"/>
			<clipPath id="SVGID_00000076581355601668403760000013247749594863807647_">
				<use xlink:href="#SVGID_00000010292272951490412800000001528050593576750981_"  style="overflow:visible;"/>
			</clipPath>
			<g style="clip-path:url(#SVGID_00000076581355601668403760000013247749594863807647_);enable-background:new    ;">
				<path style="fill:#919DD6;" d="M314.022,199.333c-0.57,2.694-2.306,10.892-13.146,17.25c2.74-1.593,4.691-4.58,5.444-8.806
					C310.785,205.182,313.548,201.992,314.022,199.333z"/>
			</g>
		</g>
		<g>
			<path style="fill:#B7B6E3;" d="M248.957,162.864l4.461,31.194c-0.875-0.322-1.342-0.84-1.436-1.501l-0.223-1.56l-0.223-1.56
				l-0.223-1.56l-0.223-1.56l-0.223-1.56l-0.223-1.56l-0.223-1.56l-0.223-1.559l-0.223-1.56l-0.223-1.56l-0.223-1.56l-0.223-1.56
				l-0.223-1.56l-0.223-1.56l-0.223-1.56l-0.223-1.559l-0.223-1.56l-0.223-1.56l-0.223-1.56l-0.223-1.56
				C247.615,162.025,248.081,162.543,248.957,162.864z"/>
		</g>
		<g>
			<defs>
				<path id="SVGID_00000031916313039107008630000015872571167444378245_" d="M300.876,216.583l-3.129,1.818
					c2.74-1.592,4.691-4.58,5.444-8.806l3.129-1.818C305.566,212.003,303.616,214.99,300.876,216.583z"/>
			</defs>
			<use xlink:href="#SVGID_00000031916313039107008630000015872571167444378245_"  style="overflow:visible;fill:#919DD6;"/>
			<clipPath id="SVGID_00000014635407065658418770000007175929381521786252_">
				<use xlink:href="#SVGID_00000031916313039107008630000015872571167444378245_"  style="overflow:visible;"/>
			</clipPath>
			<g style="clip-path:url(#SVGID_00000014635407065658418770000007175929381521786252_);enable-background:new    ;">
				<path style="fill:#919DD6;" d="M303.191,209.595l3.129-1.818c-0.753,4.226-2.704,7.213-5.444,8.806l-3.129,1.818
					C300.487,216.809,302.437,213.822,303.191,209.595z"/>
			</g>
		</g>
		<g>
			<path style="fill:#E4E3EE;" d="M262.91,137.52c11.219-6.172,18.371-3.734,22.776-1.363c-2.047-1.181-6.287-0.345-11.191,2.505
				C269.924,136.022,265.849,135.812,262.91,137.52z"/>
		</g>
		<g>
			<defs>
				<path id="SVGID_00000127024553976641962880000000355276287738244789_" d="M297.747,218.401
					c-0.401,0.221-0.929,0.529-1.337,0.737c-0.553,0.282-1.298,0.643-1.864,0.898c-1.46,0.656-2.986,1.145-2.998,1.149
					c-0.82,0.244-1.921,0.548-2.753,0.746c-0.505,0.12-1.19,0.225-1.701,0.314c-1.017,0.178-1.922,0.218-3.173,0.274
					c-0.604,0.027-1.412-0.016-2.016-0.049c-0.411-0.023-0.957-0.091-1.366-0.139c-0.778-0.091-1.803-0.308-2.561-0.505
					c-2.727-0.711-4.762-1.865-5.528-2.299c-0.839-0.484-1.309-1.307-1.306-2.468c6.531,3.77,12.141,1.638,13.337-5.066
					c3.42,2.693,11.798,1.621,18.711-2.397C302.437,213.822,300.487,216.809,297.747,218.401z"/>
			</defs>
			<use xlink:href="#SVGID_00000127024553976641962880000000355276287738244789_"  style="overflow:visible;fill:#919DD6;"/>
			<clipPath id="SVGID_00000080914939377165846410000011149477708967172791_">
				<use xlink:href="#SVGID_00000127024553976641962880000000355276287738244789_"  style="overflow:visible;"/>
			</clipPath>
			<g style="clip-path:url(#SVGID_00000080914939377165846410000011149477708967172791_);">
				<path style="fill:#919DD6;" d="M297.747,218.401c-4.977,2.742-8.854,3.896-13.827,4.118c-2.619,0.117-6.736-0.308-11.471-2.992
					c-0.839-0.484-1.309-1.307-1.306-2.468c6.531,3.77,12.141,1.638,13.337-5.066c3.42,2.693,11.798,1.621,18.711-2.397
					C302.437,213.822,300.487,216.809,297.747,218.401z"/>
			</g>
		</g>
		<g>
			<path style="fill:#E4E3EE;" d="M259.781,139.338l3.129-1.818c2.939-1.708,7.014-1.498,11.585,1.142l-3.129,1.818
				C266.796,137.841,262.72,137.63,259.781,139.338z"/>
		</g>
		<g>
			<path style="fill:#DAD9E8;" d="M284.734,144.573l-10.239-5.911c4.904-2.85,9.144-3.686,11.191-2.504l9.215,5.321l0.512,0.296
				l0.512,0.296C293.879,140.888,289.638,141.723,284.734,144.573z"/>
		</g>
		<g>
			<path style="fill:#DAD9E8;" d="M247.52,161.363c-0.405-3.707-1.481-13.553,12.19-21.983c3.01-1.75,7.085-1.539,11.656,1.1
				c-6.913,4.017-12.527,10.516-12.538,14.513c-6.247-3.601-10.968,0.164-9.872,7.871
				C248.081,162.543,247.614,162.024,247.52,161.363z"/>
		</g>
		<g>
			<polygon style="fill:#DAD9E8;" points="271.366,140.48 274.495,138.662 284.734,144.573 281.605,146.392 			"/>
		</g>
		<g>
			<path style="fill:#B7B6E3;" d="M306.319,207.777l4.62-25.95c4.466-2.596,7.229-5.786,7.702-8.445l-0.231,1.297l-0.231,1.298
				l-0.231,1.298l-0.231,1.297l-0.231,1.298l-0.231,1.298l-0.231,1.297l-0.231,1.298l-0.231,1.298l-0.231,1.297l-0.231,1.298
				l-0.231,1.298l-0.231,1.297l-0.231,1.298l-0.231,1.298l-0.231,1.297l-0.231,1.298l-0.231,1.298l-0.231,1.298l-0.231,1.297
				C313.548,201.991,310.786,205.181,306.319,207.777z"/>
		</g>
		<g>
			<polygon style="fill:#B7B6E3;" points="307.81,183.645 310.939,181.827 306.319,207.777 303.191,209.595 			"/>
		</g>
		<g>
			<path style="fill:#DAD9E8;" d="M294.974,150.485l-10.239-5.912c4.904-2.85,9.145-3.686,11.191-2.504l9.215,5.32l1.024,0.591
				C304.119,146.799,299.878,147.635,294.974,150.485z"/>
		</g>
		<g style="enable-background:new    ;">
			<path style="fill:#DAD9E8;" d="M269.068,160.905l-10.239-5.912c0.011-3.997,5.625-10.496,12.538-14.513l10.239,5.912
				C274.693,150.409,269.079,156.908,269.068,160.905z"/>
		</g>
		<g>
			<polygon style="fill:#DAD9E8;" points="281.605,146.392 284.734,144.573 294.974,150.485 291.845,152.303 			"/>
		</g>
		<g style="enable-background:new    ;">
			<path style="fill:#B7B6E3;" d="M306.166,147.981c1.614,1.009,3.282,2.053,5.786,4.799c1.437,1.576,3.118,4.056,4.088,6.03
				c2.553,5.198,3.38,9.828,2.602,14.57c-0.472,2.66-3.235,5.85-7.702,8.447c1.858-10.444-5.797-25.471-15.965-31.342
				C299.878,147.635,304.119,146.799,306.166,147.981z"/>
			<path style="fill:#B7B6E3;" d="M310.939,181.827c0.64-3.599,0.151-7.743-1.182-11.868c0.105-0.144,0.246-0.336,0.351-0.481
				c3.656-5.83,0.462-11.323-6.448-11.09c-2.495-3.263-5.465-6.042-8.687-7.903c4.905-2.85,9.146-3.686,11.192-2.503
				c0.373,0.233,0.871,0.544,1.244,0.778c0.4,0.289,0.94,0.666,1.329,0.97l1.114,0.936c0.332,0.315,0.784,0.727,1.106,1.052
				l0.992,1.061c0.285,0.34,0.674,0.787,0.95,1.134l0.875,1.163c0.245,0.363,0.582,0.841,0.818,1.211l0.754,1.245
				c0.207,0.383,0.493,0.889,0.691,1.278l0.626,1.308c0.168,0.401,0.402,0.932,0.56,1.338l0.487,1.355
				c0.125,0.419,0.304,0.974,0.418,1.396l0.332,1.388c0.078,0.441,0.194,1.028,0.258,1.471l0.154,1.408
				c0.02,0.482,0.059,1.124,0.06,1.607l-0.054,1.404c-0.064,0.57-0.145,1.33-0.238,1.896
				C318.169,176.04,315.406,179.23,310.939,181.827z"/>
			<path style="fill:#C4C3EC;" d="M310.939,181.827c0.092-0.521,0.161-1.052,0.208-1.594c0.128-0.079,0.299-0.185,0.428-0.264
				c14.757-9.585,2.553-28.836-5.83-30.529c-4.09-0.826-7.988,1.294-9.269,1.99c-0.494-0.337-0.995-0.653-1.502-0.945
				c4.905-2.85,9.146-3.686,11.192-2.503c0.373,0.233,0.871,0.544,1.244,0.778c0.4,0.289,0.94,0.666,1.329,0.97l1.114,0.936
				c0.332,0.315,0.784,0.727,1.106,1.052l0.992,1.061c0.285,0.34,0.674,0.787,0.95,1.134l0.875,1.163
				c0.245,0.363,0.582,0.841,0.818,1.211l0.754,1.245c0.207,0.383,0.493,0.889,0.691,1.278l0.626,1.308
				c0.168,0.401,0.402,0.932,0.56,1.338l0.487,1.355c0.125,0.419,0.304,0.974,0.418,1.396l0.332,1.388
				c0.078,0.441,0.194,1.028,0.258,1.471l0.154,1.408c0.02,0.482,0.059,1.124,0.06,1.607l-0.054,1.404
				c-0.064,0.57-0.145,1.33-0.238,1.896C318.169,176.04,315.406,179.23,310.939,181.827z"/>
		</g>
		<g>
			<path style="fill:#B7B6E3;" d="M284.48,211.992l4.619-25.949c3.42,2.693,11.799,1.62,18.711-2.397l-4.619,25.95
				C296.278,213.613,287.9,214.685,284.48,211.992z"/>
		</g>
		<g>
			<path style="fill:#DAD9E8;" d="M279.307,166.816l-10.239-5.912c0.012-3.997,5.626-10.496,12.538-14.513l10.239,5.911
				C284.932,156.32,279.318,162.819,279.307,166.816z"/>
		</g>
		<g style="enable-background:new    ;">
			<path style="fill:#C4C3EC;" d="M291.845,152.303l3.129-1.818c0.507,0.293,1.008,0.608,1.502,0.945l-3.129,1.819
				C292.853,152.912,292.352,152.596,291.845,152.303z"/>
			<path style="fill:#B7B6E3;" d="M293.347,153.249l3.129-1.819c2.643,1.802,5.083,4.208,7.185,6.957l-3.129,1.818
				C298.43,157.456,295.99,155.051,293.347,153.249z"/>
			<path style="fill:#B7B6E3;" d="M300.531,160.205l3.129-1.818c2.667,3.487,4.79,7.524,6.099,11.579l-3.129,1.818
				C305.322,167.729,303.198,163.692,300.531,160.205z"/>
			<path style="fill:#B7B6E3;" d="M306.63,171.784l3.129-1.818c1.139,3.527,1.661,7.066,1.387,10.268l-3.129,1.818
				C308.291,178.851,307.769,175.311,306.63,171.784z"/>
			<path style="fill:#C4C3EC;" d="M308.018,182.052l3.129-1.818c-0.046,0.541-0.115,1.073-0.208,1.593l-3.129,1.818
				C307.903,183.125,307.972,182.593,308.018,182.052z"/>
		</g>
		<g>
			<path style="fill:#C4C3EC;" d="M279.307,166.816c6.244,3.61,10.929,12.806,9.792,19.226c-1.54,8.649-3.079,17.3-4.619,25.949
				c-1.196,6.705-6.806,8.837-13.337,5.066c-0.743-0.429-1.487-0.859-2.231-1.288c-0.744-0.43-1.489-0.86-2.233-1.29
				c-6.528-3.769-12.111-12.364-13.261-20.422c-1.487-10.399-2.974-20.796-4.461-31.194c-1.096-7.708,3.625-11.473,9.872-7.871
				c3.413,1.97,6.826,3.941,10.239,5.912C272.481,162.875,275.894,164.846,279.307,166.816z"/>
		</g>
		<g style="enable-background:new    ;">
			<path style="fill:#B7B6E3;" d="M279.307,166.816c0.011-3.997,5.625-10.496,12.538-14.513
				c10.168,5.871,17.823,20.898,15.965,31.342c-6.912,4.017-15.291,5.09-18.711,2.397
				C290.236,179.622,285.551,170.426,279.307,166.816z"/>
			<path style="fill:#B7B6E3;" d="M289.099,186.042c1.137-6.42-3.549-15.617-9.792-19.226c0.011-3.997,5.625-10.496,12.538-14.513
				c3.222,1.861,6.193,4.641,8.687,7.903c-0.111,0.006-0.26,0.014-0.372,0.02c-11.464,0.854-11.456,10.125-5.376,15.494
				c4.113,3.632,9.855-1.187,11.844-3.943c1.333,4.125,1.822,8.268,1.182,11.868C300.898,187.662,292.519,188.736,289.099,186.042z"
				/>
			<path style="fill:#C4C3EC;" d="M289.099,186.042c1.137-6.42-3.549-15.617-9.792-19.226c0.011-3.997,5.625-10.496,12.538-14.513
				c0.507,0.293,1.008,0.609,1.502,0.945c-0.131,0.075-0.306,0.175-0.436,0.25c-2.446,1.482-8.039,5.499-7.125,10.787
				c0.571,3.301,7.832,16.258,7.903,16.372c1.202,1.939,2.385,3.241,4.563,3.74c1.233,0.282,4.652,0.619,9.766-2.345
				c-0.046,0.541-0.115,1.073-0.208,1.593C300.898,187.662,292.519,188.736,289.099,186.042z"/>
		</g>
	</g>
	<g>
		<path style="fill:#B7B6E3;" d="M316.046,124.523c-2.913-5.021-6.282-7.111-7.72-8.003c-1.953-1.127-6.325-0.162-11.409,2.793
			c0.436,0.252,0.867,0.527,1.293,0.818l-3.126,1.817c0.022,0.015,0.045,0.033,0.068,0.048c-0.449-0.309-0.904-0.598-1.364-0.864
			c-6.913,4.017-12.526,10.191-12.536,13.789c4.685,2.701,8.484,9.28,8.465,14.659c3.131,1.807,11.275,0.016,18.187-4.001
			l3.129-1.818c5.068-2.945,8.068-6.269,8.075-8.658C319.048,133.411,318.908,129.454,316.046,124.523z"/>
		<path style="fill:#C4C3EC;" d="M257.818,147.861c-1.446-0.897-4.833-3-7.719-8.003c-1.397-2.421-3.062-6.242-3.062-10.691
			c-0.002,0.829,0.392,1.519,1.227,2.002c-0.019,5.379,3.781,11.959,8.465,14.659C256.726,146.779,257.115,147.456,257.818,147.861z
			"/>
		<path style="fill:#DAD9E8;" d="M248.278,125.654l-0.015,5.515c-0.835-0.482-1.23-1.172-1.227-2.001l0.002-0.551l0.002-0.552
			l0.002-0.551l0.002-0.552l0.002-0.551l0.002-0.552l0.001-0.551l0.002-0.552l0.002-0.551l0.002-0.552
			C247.049,124.482,247.443,125.172,248.278,125.654z"/>
		<path style="fill:#E4E3EE;" d="M262.386,104.207c10.932-6.047,17.49-3.932,21.473-1.814c-1.936-1.118-6.309-0.154-11.394,2.801
			C268.527,102.922,264.961,102.71,262.386,104.207z"/>
		<path style="fill:#E4E3EE;" d="M259.257,106.025l3.129-1.819c2.575-1.497,6.142-1.285,10.078,0.987l-3.129,1.819
			C265.398,104.74,261.832,104.529,259.257,106.025z"/>
		<path style="fill:#C4C3EC;" d="M256.728,145.828l24.453,14.118c-0.002,0.951,0.387,1.627,1.089,2.033l-2.445-1.412l-2.445-1.412
			l-2.445-1.412l-2.445-1.412l-2.445-1.412l-2.445-1.412l-2.445-1.412l-2.445-1.412l-2.445-1.412l-2.445-1.412
			C257.115,147.455,256.726,146.779,256.728,145.828z"/>
		<path style="fill:#E4E3EE;" d="M247.051,123.654c0.094-2.592,0.382-10.481,12.205-17.629c2.575-1.497,6.142-1.286,10.079,0.987
			c-6.913,4.017-12.526,10.191-12.536,13.789c-4.685-2.708-8.509-0.53-8.521,4.853C247.444,125.172,247.049,124.482,247.051,123.654
			z"/>
		<path style="fill:#DAD9E8;" d="M311.018,149.274l0.016-5.515c3.165-1.839,5.524-3.827,6.85-5.614l-0.015,5.515
			C316.541,145.448,314.182,147.435,311.018,149.274z"/>
		<path style="fill:#DAD9E8;" d="M317.868,143.66l0.015-5.515c0.798-1.075,1.222-2.078,1.225-2.933l-0.001,0.552l-0.002,0.551
			l-0.002,0.552l-0.002,0.551l-0.002,0.552l-0.002,0.551l-0.001,0.551l-0.002,0.552l-0.002,0.551l-0.002,0.552
			C319.09,141.582,318.665,142.585,317.868,143.66z"/>
		<path style="fill:#DAD9E8;" d="M296.917,119.312l-24.453-14.118c5.085-2.955,9.457-3.92,11.41-2.792l2.445,1.412l2.445,1.412
			l2.445,1.412l2.445,1.412l2.445,1.412l2.445,1.412l2.445,1.412l2.445,1.412l2.445,1.412l2.445,1.412
			C306.374,115.392,302.001,116.357,296.917,119.312z"/>
		<polygon style="fill:#DAD9E8;" points="307.904,145.578 311.033,143.759 311.018,149.274 307.889,151.092 		"/>
		<polygon style="fill:#DAD9E8;" points="269.335,107.013 272.464,105.194 296.917,119.312 293.788,121.131 		"/>
		<g style="enable-background:new    ;">
			<path style="fill:#DAD9E8;" d="M317.887,138.141c3.324-8.036-4.06-16.518-4.135-16.603c-2.703-3.054-6.141-5.494-12.933-2.685
				c-1.168,0.483-2,0.941-2.606,1.275c-0.427-0.291-0.859-0.563-1.296-0.816c5.084-2.954,9.456-3.92,11.409-2.793
				c0.286,0.177,0.667,0.414,0.953,0.592c0.299,0.212,0.703,0.488,0.995,0.71l0.857,0.696c0.256,0.232,0.602,0.535,0.85,0.773
				l0.774,0.783c0.224,0.25,0.529,0.579,0.747,0.835l0.695,0.856c0.197,0.268,0.467,0.621,0.659,0.894l0.616,0.919
				c0.172,0.284,0.408,0.659,0.574,0.947l0.532,0.97c0.146,0.298,0.349,0.692,0.488,0.992l0.442,1.013
				c0.119,0.31,0.285,0.721,0.396,1.034l0.344,1.048c0.089,0.323,0.215,0.752,0.295,1.077l0.235,1.079
				c0.055,0.34,0.136,0.793,0.18,1.134l0.109,1.11c0.013,0.369,0.04,0.862,0.04,1.232
				C319.105,136.067,318.682,137.068,317.887,138.141z"/>
		</g>
		<g style="enable-background:new    ;">
			<path style="fill:#DAD9E8;" d="M293.788,121.131l3.129-1.819c0.437,0.253,0.869,0.525,1.296,0.816l-3.129,1.819
				C294.658,121.655,294.225,121.383,293.788,121.131z"/>
		</g>
		<path style="fill:#DAD9E8;" d="M289.702,155.093l0.016-5.515c1.556,0.898,4.35,0.908,7.615,0.197l-0.016,5.514
			C294.052,156.001,291.258,155.992,289.702,155.093z"/>
		<path style="fill:#DAD9E8;" d="M297.317,155.29l0.016-5.514c3.306-0.72,7.095-2.177,10.571-4.198l-0.016,5.515
			C304.411,153.113,300.623,154.57,297.317,155.29z"/>
		<path style="fill:#DAD9E8;" d="M281.252,134.919l-24.453-14.118c0.01-3.597,5.623-9.772,12.536-13.789l24.453,14.118
			C286.875,125.147,281.262,131.322,281.252,134.919z"/>
		<path style="fill:#042F8F;" d="M281.252,134.919c4.685,2.701,8.484,9.28,8.465,14.659c-0.005,1.839-0.01,3.677-0.016,5.515
			c-0.012,5.383-3.836,7.561-8.521,4.853c-8.151-4.706-16.302-9.412-24.453-14.118c-4.685-2.701-8.484-9.28-8.465-14.659
			c0.005-1.839,0.01-3.677,0.015-5.515c0.012-5.383,3.836-7.561,8.521-4.853C264.95,125.508,273.101,130.214,281.252,134.919z"/>
		<g style="enable-background:new    ;">
			<path style="fill:#DAD9E8;" d="M289.717,149.579c0.019-5.379-3.781-11.959-8.465-14.659c0.01-3.597,5.623-9.772,12.536-13.789
				c0.437,0.252,0.869,0.524,1.296,0.816c-0.13,0.075-0.304,0.176-0.434,0.251c-2.523,1.519-8.346,5.563-7.945,10.293
				c0.249,2.931,6.305,13.519,6.365,13.621c0.971,1.625,1.936,3.015,3.913,3.578c0.104,0.03,0.246,0.061,0.351,0.087
				C294.068,150.486,291.274,150.477,289.717,149.579z"/>
		</g>
		<path style="fill:#C4C3EC;" d="M311.018,149.274l-3.129,1.818c-6.913,4.017-15.056,5.808-18.187,4.001
			c-0.012,5.383-3.836,7.561-8.521,4.853c-0.002,0.951,0.387,1.627,1.089,2.032c2.536,1.355,9.272,4.953,21.489-1.805l3.129-1.819
			c0,0,0,0,0,0c5.542-3.239,8.264-6.929,8.754-7.636c2.435-3.517,3.306-6.039,3.451-9.993
			C319.087,143.003,316.086,146.328,311.018,149.274z"/>
		<g>
			<g>
				<path style="fill:#05D4F5;" d="M262.183,131.801c0,2.098-1.473,2.948-3.29,1.899c-1.817-1.049-3.289-3.6-3.289-5.698
					c0-2.098,1.473-2.948,3.289-1.899C260.71,127.152,262.183,129.703,262.183,131.801z"/>
				<path style="fill:#05D4F5;" d="M280.614,142.442c0,2.098-1.473,2.948-3.29,1.899c-1.817-1.049-3.289-3.6-3.289-5.698
					c0-2.098,1.473-2.948,3.289-1.899C279.141,137.793,280.614,140.344,280.614,142.442z"/>
			</g>
			<path style="fill:#05D4F5;" d="M264.826,144.09c-0.002,0.054-0.007,0.105-0.007,0.161c0,2.098,1.473,4.649,3.289,5.697
				c1.817,1.049,3.29,0.199,3.29-1.899c0-0.056-0.005-0.113-0.007-0.169L264.826,144.09z"/>
		</g>
		<g>
			<g style="enable-background:new    ;">
				<g style="enable-background:new    ;">
					<defs>
						<path id="SVGID_00000152231530108470880420000007210016510061563293_" style="enable-background:new    ;" d="
							M313.303,138.019l3.473,2.018c-1.229-0.714-2.931-0.614-4.81,0.47l-3.473-2.018
							C310.372,137.405,312.073,137.305,313.303,138.019z"/>
					</defs>
					<use xlink:href="#SVGID_00000152231530108470880420000007210016510061563293_"  style="overflow:visible;fill:#EBEBF1;"/>
					<clipPath id="SVGID_00000092432891666218274440000012311609138218660526_">
						<use xlink:href="#SVGID_00000152231530108470880420000007210016510061563293_"  style="overflow:visible;"/>
					</clipPath>
					<g style="clip-path:url(#SVGID_00000092432891666218274440000012311609138218660526_);enable-background:new    ;">
						<path style="fill:#EBEBF1;" d="M311.966,140.508l-3.473-2.018c1.878-1.085,3.58-1.185,4.81-0.471l3.473,2.018
							C315.546,139.323,313.845,139.423,311.966,140.508z"/>
					</g>
				</g>
				<g style="enable-background:new    ;">
					<defs>
						<path id="SVGID_00000005236533354361931030000016990443728015161775_" style="enable-background:new    ;" d="
							M307.198,156.523l-3.473-2.019c-1.214-0.706-1.968-2.205-1.974-4.337c-0.012-4.291,3.008-9.521,6.742-11.677l3.473,2.018
							c-3.734,2.156-6.754,7.386-6.742,11.677C305.23,154.317,305.984,155.817,307.198,156.523z"/>
					</defs>
					<use xlink:href="#SVGID_00000005236533354361931030000016990443728015161775_"  style="overflow:visible;fill:#EBEBF1;"/>
					<clipPath id="SVGID_00000044178647973693574400000007037848155637278615_">
						<use xlink:href="#SVGID_00000005236533354361931030000016990443728015161775_"  style="overflow:visible;"/>
					</clipPath>
					<g style="clip-path:url(#SVGID_00000044178647973693574400000007037848155637278615_);enable-background:new    ;">
						<path style="fill:#EBEBF1;" d="M307.198,156.523l-3.473-2.019c-1.079-0.627-1.793-1.88-1.944-3.646l3.473,2.018
							C305.405,154.642,306.12,155.896,307.198,156.523z"/>
						<path style="fill:#EBEBF1;" d="M305.254,152.876l-3.473-2.018c-0.019-0.223-0.029-0.453-0.03-0.691
							c-0.01-3.7,2.233-8.099,5.246-10.622l3.473,2.018c-3.012,2.523-5.256,6.922-5.245,10.622
							C305.225,152.424,305.235,152.654,305.254,152.876z"/>
						<path style="fill:#EBEBF1;" d="M310.47,141.563l-3.473-2.018c0.482-0.403,0.982-0.758,1.496-1.055l3.473,2.018
							C311.452,140.805,310.951,141.16,310.47,141.563z"/>
					</g>
				</g>
				<g>
					<path style="fill:#B7B6E3;" d="M311.966,140.508c3.734-2.156,6.771-0.422,6.783,3.869c0.012,4.291-3.004,9.519-6.739,11.676
						c-3.734,2.156-6.774,0.424-6.786-3.867C305.212,147.894,308.232,142.664,311.966,140.508z"/>
				</g>
				<g>
					<path style="fill:#05D4F5;" d="M311.975,143.912c2.099-1.212,3.805-0.237,3.812,2.174c0.007,2.412-1.689,5.35-3.787,6.562
						c-2.099,1.212-3.807,0.238-3.814-2.174C308.18,148.063,309.876,145.124,311.975,143.912z"/>
				</g>
			</g>
		</g>
		<g>
			<g style="enable-background:new    ;">
				<g style="enable-background:new    ;">
					<defs>
						<path id="SVGID_00000154384168168509216480000002284020910466139053_" style="enable-background:new    ;" d="
							M287.259,112.476l-0.005,1.782c-0.002,0.623-0.412,1.245-1.23,1.721c-1.646,0.956-4.325,0.957-5.983,0
							c-0.833-0.481-1.25-1.113-1.248-1.744l0.005-1.782c-0.002,0.631,0.414,1.262,1.248,1.744c1.658,0.957,4.337,0.957,5.983,0
							C286.847,113.721,287.257,113.099,287.259,112.476z"/>
					</defs>
					<use xlink:href="#SVGID_00000154384168168509216480000002284020910466139053_"  style="overflow:visible;fill:#B7B6E3;"/>
					<clipPath id="SVGID_00000134949779510855291880000003790104641990060709_">
						<use xlink:href="#SVGID_00000154384168168509216480000002284020910466139053_"  style="overflow:visible;"/>
					</clipPath>
					<g style="clip-path:url(#SVGID_00000134949779510855291880000003790104641990060709_);enable-background:new    ;">
						<path style="fill:#B7B6E3;" d="M287.259,112.476l-0.005,1.782c-0.002,0.623-0.412,1.245-1.23,1.721
							c-0.624,0.363-1.396,0.588-2.205,0.676l0.005-1.782c0.809-0.088,1.582-0.313,2.206-0.676
							C286.847,113.721,287.257,113.099,287.259,112.476z"/>
						<path style="fill:#B7B6E3;" d="M283.824,114.873l-0.005,1.782c-1.325,0.144-2.748-0.081-3.778-0.676
							c-0.149-0.086-0.285-0.177-0.407-0.272l0.005-1.782c0.122,0.095,0.259,0.186,0.408,0.272
							C281.076,114.791,282.499,115.016,283.824,114.873z"/>
						<path style="fill:#B7B6E3;" d="M279.638,113.925l-0.005,1.782c-0.562-0.435-0.842-0.954-0.841-1.472l0.005-1.782
							C278.797,112.971,279.077,113.489,279.638,113.925z"/>
					</g>
				</g>
				<g>
					<path style="fill:#EBEBF1;" d="M286.01,110.731c1.659,0.958,1.666,2.509,0.02,3.466c-1.646,0.957-4.325,0.957-5.983,0
						c-1.657-0.957-1.665-2.508-0.018-3.465C281.674,109.775,284.353,109.774,286.01,110.731z"/>
				</g>
			</g>
		</g>
		<g>
			<path style="fill:#919DD6;" d="M282.976,113.444c-0.681,0-1.232-0.551-1.232-1.232V98.605c0-0.681,0.551-1.232,1.232-1.232
				c0.68,0,1.232,0.551,1.232,1.232v13.607C284.207,112.893,283.656,113.444,282.976,113.444z"/>
		</g>
		<path style="fill:#919DD6;" d="M287.123,99.495c0,2.239-1.815,4.054-4.054,4.054c-2.239,0-4.054-1.815-4.054-4.054
			s1.815-4.054,4.054-4.054C285.308,95.441,287.123,97.256,287.123,99.495z"/>
	</g>
	<g id="man_2_">
		<path style="fill:#919DD6;" d="M224.328,173.587l5.108-2.969c1.091,0.629,1.981,2.17,1.977,3.423
			c-0.002,0.653-0.004,1.306-0.006,1.959c-0.001,0.467,0.021,0.941-0.004,1.407c-0.032,0.581-0.318,1.051-0.759,1.422
			c-0.405,0.34-0.883,0.586-1.29,0.924c-0.167,0.139-0.324,0.293-0.511,0.401c-0.176,0.102-0.375,0.16-0.572,0.208
			c-0.365,0.088-0.748,0.145-1.113,0.059c-0.349-0.082-0.669-0.316-0.803-0.656c-0.126-0.317-0.055-0.728-0.054-1.064
			c0.002-0.564,0.003-1.128,0.005-1.693C226.309,175.757,225.419,174.217,224.328,173.587z"/>
		<g>
			<polygon style="fill:#B7B6E3;" points="224.328,173.587 229.436,170.619 218.693,164.416 213.584,167.384 			"/>
		</g>
		<g>
			<path style="fill:#919DD6;" d="M221.525,302.706c0.003-0.183-0.001-0.367-0.014-0.552c-0.124-1.888,0.604-3.484,1.293-5.23
				c0.257-0.651,0.536-1.334,1.084-1.77c1.249-0.994,3.226-0.123,4.018,1.263c0.367,0.641,0.57,1.363,0.899,2.026
				c0.625,1.257,1.884,2.756,3.401,2.825c2.038,0.091,4.329-0.61,6.393-0.735c0.805-0.049,1.638-0.075,2.385,0.226
				c1.761,0.711,2.269,3.553,1.64,5.139c-0.389,0.98-1.271,1.689-2.222,2.142c-1.427,0.68-3.308,1.071-4.884,0.953
				c-1.689-0.125-3.305,0.042-4.855,0.774c-2.661,1.256-5.755,3.061-8.441,0.614c-0.718-0.654-1.069-1.635-1.153-2.601
				C220.92,306.065,221.502,304.407,221.525,302.706z"/>
			<g id="man_8_">
				<g>
					<g>
						<g>
							<path style="fill:#919DD6;" d="M206.914,298.817c0.207-0.649,0.668-0.471,1.176-0.617c0.631-0.181,1.222-0.629,1.707-1.058
								c0.624-0.551,1.162-1.192,1.742-1.792c1.5-1.551,3.287-2.825,5.243-3.738c0.6-0.28,1.227-0.53,1.887-0.591
								c1.253-0.117,2.458,0.447,3.59,0.997c1.097,0.533,1.095,1.238,1.151,2.328c0.027,0.521,0.012,1.049-0.12,1.554
								c-0.264,1.017-0.97,1.854-1.691,2.618c-0.832,0.883-1.727,1.731-2.805,2.287c-0.879,0.453-1.863,0.703-2.687,1.251
								c-0.555,0.369-1.012,0.86-1.413,1.387c-0.318,0.418-0.556,0.953-1.003,1.247c-0.928,0.607-2.032,1.098-3.145,1.177
								c-2.194,0.157-4.013-1.174-4.098-3.44c-0.03-0.812,0.113-1.62,0.255-2.42C206.792,299.504,206.819,299.112,206.914,298.817z"
								/>
						</g>
					</g>
				</g>
			</g>
			<path style="fill:#02196A;" d="M223.076,242.977c-0.462-0.608-1.3-0.75-2.053-0.884c-3.299-0.588-6.524-1.897-9.772-2.685
				c-1.459-0.354-2.924-0.597-4.401-0.628l-3.216-2.902c-0.396,2.797-0.634,5.64-0.312,8.447c0.701,6.113,2.298,20.221,2.715,26.947
				c0.318,5.131,0.287,10.274,0.329,15.412c0.018,2.214,0.164,4.429-0.115,6.612c-0.254,1.988-0.287,4.713,0.661,6.524
				c0.752,1.437,2.254,2.439,3.863,2.63c1.609,0.192,3.284-0.415,4.433-1.559c0.728-0.724,0.699-2.153,0.809-3.118
				c0.1-0.876,0.148-1.757,0.181-2.637c0.095-2.542,0.096-5.086,0.18-7.628c0.089-2.683,0.231-5.364,0.417-8.043
				c0.122-1.759,0.26-3.516,0.415-5.273c0.085-0.969,0.175-1.938,0.268-2.906c0.079-0.827-0.075-2.435,0.316-3.152
				c1.683-3.088,3.126-6.408,3.375-8.23c0.354-2.59,0.342-5.212,0.609-7.811c0.244-2.377,1.114-4.571,1.536-6.92
				C223.448,244.427,223.533,243.582,223.076,242.977z"/>
			<path style="fill:#042F8F;" d="M229.583,275.509c-0.004,0.116-0.007,0.23-0.008,0.344c-0.093,5.313,0.28,10.617,0.408,15.926
				c0.085,3.534,0.794,13.026-2.396,14.236c-1.581,0.599-4.77,1.044-5.647-0.483c-3.272-5.7-4.251-25.573-4.479-31.186
				c-0.057-1.415,0.096-0.895,0.012-2.309c-0.068-1.13-0.524-2.744-0.204-3.837c0.614-2.099,3.389-0.909,4.749-0.441
				c1.975,0.68,4.446,1.016,6.141,2.326C229.852,271.393,229.641,273.576,229.583,275.509z"/>
			<path style="fill:#042F8F;" d="M229.98,238.722c-1.785-1.613-7.293,0.364-9.363,0.485c-1.911,0.113-3.827,0.133-5.741,0.115
				c-0.849-0.008-1.938,0.152-2.759-0.048c-0.715-0.174-1.278-0.731-2.025-0.909c-0.587-0.14-2.233-1.355-2.697-0.97
				c-0.708,0.588,0.273,2.949,0.469,3.848c1.75,7.984,7.025,14.714,8.59,22.711c0.659,3.362,0.522,6.826,0.871,10.235
				c0.042,0.422,0.094,0.849,0.262,1.239c0.29,0.674,0.891,1.159,1.503,1.564c1.504,0.996,3.218,1.667,4.992,1.982
				c0.951,0.168,1.921,0.236,2.886,0.197c0.73-0.029,1.667-0.377,2.332-0.008c0.418-2.851,0.114-5.796,0.708-8.599
				c0.625-2.945,0.491-6.132,0.592-9.155c0.222-6.641,0.341-13.287,0.164-19.93c-0.022-0.827-0.06-1.696-0.491-2.403
				C230.193,238.944,230.095,238.825,229.98,238.722z"/>
			<g>
				<g>
					<path style="fill:#E7E7E7;" d="M233.109,205.173c0.059,0.758-0.069,2.237-0.809,2.735c-0.61,0.41-1.947,0.26-2.64,0.324
						c-2.178,0.202-4.357,0.342-6.534,0.483c-0.988,0.064-1.977,0.128-2.964,0.16c-2.894,0.091-5.774-0.098-8.593-0.565
						c-1.094-0.182-2.912-0.445-3.783-1.172c-0.863-0.721-0.944-1.888-0.799-3.05c0.258-2.076,1.284-4.111,3.258-4.903
						c1.981-0.796,3.938-0.456,5.901-0.205c4.539,0.58,9.023,1.448,13.421,2.602c0.782,0.205,1.578,0.427,2.233,0.899
						C232.548,203.022,233.023,204.074,233.109,205.173z"/>
					<g>
						<g>
							<g>
								<g>
									<g>
										<path style="fill:#DAD9E8;" d="M232.341,202.686c-0.002-0.07-0.003-0.14-0.004-0.209
											c-0.027-1.193-0.029-2.579-0.721-3.619c-0.699-1.052-6.824-4.703-12.204-6.641c-5.082-1.831-10.271-5.56-15.693-2.498
											c-7.139,4.038-2.499,15.871-0.868,25.154c1.094,6.234,0.401,8.423,0.982,12.66c1.006,7.337-5.326,14.274,4.554,16.542
											c6.751,1.549,13.971,2.737,20.476,0.355c3.248-1.189,3.161-2.771,2.977-4.606
											C229.671,218.141,232.455,209.921,232.341,202.686z"/>
									</g>
								</g>
							</g>
						</g>
					</g>
					<path style="fill:#F5BFA6;" d="M220.768,187.801c0.197-1.343,1.211-1.031,0.698-2.25c-0.436-1.034-1.097-1.986-1.985-2.673
						c-0.888-0.686-2.009-1.092-3.131-1.031c-0.386,0.021-0.643,0.243-1.027,0.243c-1.057,0.004-2.121-0.198-3.176-0.045
						c-1.05,0.152-2.022,0.228-2.021,1.414c0.001,1.58,0.073,3.1-0.432,4.655c-0.269,0.829-0.68,1.63-0.752,2.5
						c-0.143,1.71,1.106,3.304,2.652,4.052c1.899,0.919,4.047,0.834,6.068,0.541c1.014-0.147,2.441-0.35,3.036-1.316
						c0.448-0.729,0.256-1.683,0.16-2.479C220.713,190.206,220.591,189.014,220.768,187.801z"/>
					<g>
						<g>
							<path style="fill:#F5BFA6;" d="M225.275,170.613c0.637,0.776,1.136,1.649,1.289,2.673c0.341,2.281-0.578,4.625-0.082,6.888
								c0.479,2.192-0.461,7.173-4.784,8.447c-2.188,0.646-6.504-0.11-7.894-0.775c-1.864-0.893-3.094-2.699-4.196-4.447
								C200.575,169.058,219.149,163.16,225.275,170.613z"/>
						</g>
						<path style="fill:#1393F2;" d="M206.966,167.795c0.438-0.45,0.975-0.837,1.63-1.143c0.199-0.093,0.41-0.179,0.551-0.346
							c0.104-0.125,0.158-0.283,0.227-0.431c0.308-0.661,0.922-1.128,1.559-1.482c2.41-1.341,5.332-1.404,8.061-1.012
							c0.922,0.132,1.845,0.315,2.7,0.682c0.977,0.419,1.84,1.067,2.621,1.787c1.104,1.018,2.152,2.215,2.726,3.62
							c0.267,0.654,0.32,1.345,0.508,2.008c0.17,0.597-0.038,1.301-0.535,1.681c-0.213,0.163-0.466,0.268-0.689,0.418
							c-0.916,0.617-1.087,2.044-1.483,3.01c-0.251,0.61-0.745,0.943-0.887,1.599c-0.148,0.683-0.134,1.395-0.351,2.064
							c-0.102,0.317-0.313,0.659-0.647,0.68c-0.137,0.008-0.272-0.043-0.389-0.115c-0.386-0.239-0.586-0.688-0.714-1.123
							c-0.127-0.435-0.209-0.894-0.452-1.279c-0.035-0.056-0.078-0.113-0.14-0.138c-0.051-0.02-0.108-0.014-0.162-0.003
							c-0.464,0.09-0.77,0.436-0.991,0.828c-0.269,0.474-0.413,1.007-0.554,1.533c-0.223,0.826-0.25,1.527-0.355,2.35
							c-0.105,0.834-0.341,1.724-0.925,2.354c-1.31,1.415-3.835,1.335-5.541,0.958c-0.617-0.138-1.239-0.282-1.809-0.558
							c-1.316-0.633-2.214-1.877-3.053-3.073c-0.767-1.093-1.542-2.209-1.947-3.482c-0.229-0.717-0.334-1.468-0.437-2.213
							C205.072,173.947,204.754,170.069,206.966,167.795z"/>
					</g>
				</g>
			</g>
		</g>
		<g id="man_41_">
			<path style="fill:#01084E;" d="M205.805,178.761c0.066,0.286,0.469,1.365,0.588,1.59c4.4,0.813,9.414,0.702,13.747-0.288
				c1.792-0.409,3.537-0.986,5.198-1.745c0.534-0.244,2.898-1.381,3.29-1.789c0.389-0.41,0.616-0.989,0.432-1.502
				c-0.269-0.761-0.645-0.732-1.597-0.3c-1.071,0.487-4.699,2.352-7.889,3.303C217.528,178.639,210.858,178.938,205.805,178.761z"/>
			<path style="fill:#02196A;" d="M229.892,174.8c0,0.897-0.63,1.987-1.406,2.436c-0.777,0.449-1.406,0.085-1.406-0.812
				c0-0.897,0.63-1.987,1.406-2.436C229.262,173.54,229.892,173.903,229.892,174.8z"/>
			<path style="fill:#E9A27F;" d="M227.193,176.638c-0.645-0.1-1.499,0.537-0.979,0.888c-0.342,0.042-0.671,0.307-0.678,0.651
				c-0.009,0.448,0.461,0.722,0.813,0.999c0.481,0.38,0.815,0.912,1.138,1.433c0.683,1.099,0.848,2.587,0.626,2.559
				c-0.558-0.071-1.139-0.347-1.359-0.865c-0.128-0.3-0.121-0.65-0.276-0.938c-0.128-0.238-0.351-0.408-0.571-0.566
				c-0.076-0.055-0.157-0.111-0.251-0.118c-0.196-0.015-0.338,0.188-0.39,0.378c-0.081,0.298-0.044,0.613-0.008,0.919
				c0.089,0.75,0.198,1.547,0.687,2.124c0.162,0.191,0.358,0.348,0.536,0.525c0.194,0.193,0.365,0.41,0.579,0.581
				c0.275,0.222,1.984,1.453,2.746,1.767c2.683,2.353,4.469,1.244,4.986-0.939c0.248-1.048-0.358-3.568-0.808-4.915
				c-0.014-0.042-0.016-0.081-0.032-0.122c-0.027-0.073-0.06-0.157-0.092-0.238c-0.002-0.004-0.003-0.01-0.005-0.014
				c-0.002-0.004-0.003-0.007-0.005-0.012c-0.722-1.85-2.44-5.564-4.024-4.813c-0.004,0.127-0.009,0.253-0.013,0.38
				C227.837,175.525,228.441,176.831,227.193,176.638z"/>
			<path style="fill:#DAD9E8;" d="M231.754,185.288c0.579-0.481,1.847-1.221,2.671-0.907c0.679,0.259,1.321,1.426,1.767,1.948
				c2.307,2.7,14.028,19.675,13.688,23.877c-0.176,2.177-5.258,2.78-8.197,0.879c-3.148-2.036-9.53-17.466-10.811-20.889
				c-0.28-0.75-0.555-1.518-0.546-2.316C230.335,186.968,230.915,185.984,231.754,185.288z"/>
			<path style="fill:#E4E3EE;" d="M230.276,197.409c-1.954-0.964-4.218-1.633-6.075-0.449c-0.768,0.49-1.322,1.255-1.763,2.053
				c-1.16,2.097-1.872,4.422-1.379,6.819c0.095,0.459,0.229,0.915,0.46,1.323c0.85,1.504,2.425,1.765,3.907,2.255
				c1.786,0.59,3.536,1.279,5.279,1.983c3.48,1.406,6.948,2.893,10.594,3.823c2.135,0.544,4.547,0.853,6.418-0.31
				c1.262-0.785,2.101-2.21,2.175-3.694c0.18-3.6-2.031-4.828-2.428-5.048C234.994,199.261,229.992,197.269,230.276,197.409z"/>
		</g>
		<g>
			<path style="fill:#F5BFA6;" d="M219.59,176.04c-1.944-0.368-2.735,2.005-1.616,4.046c0.327,0.595,0.964,1.166,1.424,1.664
				c3.152,3.413,4.423,0.284,3.43-0.868C220.52,178.204,222.035,176.502,219.59,176.04z"/>
			<path style="fill:#E9A27F;" d="M219.736,179.806c-0.199-0.232-2.276-1.819-0.645-2.536c0.451-0.197,0.876,0.228,0.887,0.682
				c0.006,0.237-0.094,0.465-0.088,0.7c0.004,0.14,0.048,0.275,0.105,0.402c0.16,0.348,0.798,0.738,0.609,1.194
				C220.435,180.652,219.85,179.94,219.736,179.806z"/>
		</g>
	</g>
	<g>
		<g style="enable-background:new    ;">
			<g>
				<polygon style="fill:#F5B000;" points="243.993,81.935 246.497,80.481 246.191,81.182 243.687,82.637 				"/>
			</g>
			<g>
				<polygon style="fill:#F5B000;" points="254.535,88.899 257.038,87.445 258.02,87.134 255.517,88.589 				"/>
			</g>
			<g>
				<polygon style="fill:#F1BF0D;" points="255.517,88.589 254.535,88.899 238.769,93.895 243.687,82.637 243.993,81.935 				"/>
			</g>
			<g>
				<polygon style="fill:#F5B000;" points="243.993,81.935 246.497,80.481 258.02,87.134 255.517,88.589 				"/>
			</g>
			<g style="enable-background:new    ;">
				<defs>
					<path id="SVGID_00000012462640011243628540000017696598701334928805_" style="enable-background:new    ;" d="M236.254,49.944
						l2.503-1.455c0.895-0.52,2.131-0.45,3.49,0.334l-2.503,1.455C238.385,49.494,237.149,49.424,236.254,49.944z"/>
				</defs>
				<use xlink:href="#SVGID_00000012462640011243628540000017696598701334928805_"  style="overflow:visible;fill:#F5B000;"/>
				<clipPath id="SVGID_00000104678584870072599110000010760258009958114489_">
					<use xlink:href="#SVGID_00000012462640011243628540000017696598701334928805_"  style="overflow:visible;"/>
				</clipPath>
				<g style="clip-path:url(#SVGID_00000104678584870072599110000010760258009958114489_);enable-background:new    ;">
					<path style="fill:#F5B000;" d="M236.254,49.944l2.503-1.455c0.895-0.52,2.131-0.45,3.49,0.334l-2.503,1.455
						C238.385,49.494,237.149,49.424,236.254,49.944z"/>
				</g>
			</g>
			<g style="enable-background:new    ;">
				<defs>
					<path id="SVGID_00000089569056960781447770000007070590129346696638_" style="enable-background:new    ;" d="M278.293,98.035
						l-2.504,1.455c0.884-0.513,1.433-1.602,1.438-3.146l2.503-1.455C279.727,96.432,279.177,97.521,278.293,98.035z"/>
				</defs>
				<use xlink:href="#SVGID_00000089569056960781447770000007070590129346696638_"  style="overflow:visible;fill:#F5B000;"/>
				<clipPath id="SVGID_00000034782519499727360370000017312961807399909281_">
					<use xlink:href="#SVGID_00000089569056960781447770000007070590129346696638_"  style="overflow:visible;"/>
				</clipPath>
				<g style="clip-path:url(#SVGID_00000034782519499727360370000017312961807399909281_);enable-background:new    ;">
					<path style="fill:#F5B000;" d="M277.228,96.344l2.503-1.455c-0.004,1.543-0.554,2.632-1.438,3.146l-2.504,1.455
						C276.673,98.976,277.223,97.887,277.228,96.344z"/>
				</g>
			</g>
			<g>
				<polygon style="fill:#F5B000;" points="277.281,77.607 279.784,76.152 279.731,94.889 277.228,96.344 				"/>
			</g>
			<g>
				<polygon style="fill:#F5B000;" points="239.744,50.278 242.248,48.823 274.884,67.666 272.381,69.121 				"/>
			</g>
			<g>
				<path style="fill:#F1BF0D;" d="M272.381,69.121c2.704,1.562,4.908,5.382,4.899,8.486l-0.053,18.737
					c-0.009,3.107-2.227,4.372-4.932,2.81l-17.761-10.255l0.981-0.311l-11.524-6.653l-0.306,0.701l-4.028-2.326
					c-2.701-1.56-4.905-5.377-4.896-8.485l0.053-18.736c0.009-3.105,2.227-4.372,4.929-2.812L272.381,69.121z"/>
			</g>
			<g style="enable-background:new    ;">
				<defs>
					<path id="SVGID_00000034061742807765967030000014106598583557379734_" style="enable-background:new    ;" d="M272.381,69.121
						l2.503-1.455c2.705,1.561,4.909,5.382,4.9,8.486l-2.504,1.455C277.289,74.503,275.085,70.682,272.381,69.121z"/>
				</defs>
				<use xlink:href="#SVGID_00000034061742807765967030000014106598583557379734_"  style="overflow:visible;fill:#F5B000;"/>
				<clipPath id="SVGID_00000018947969034146470920000016095227031311236276_">
					<use xlink:href="#SVGID_00000034061742807765967030000014106598583557379734_"  style="overflow:visible;"/>
				</clipPath>
				<g style="clip-path:url(#SVGID_00000018947969034146470920000016095227031311236276_);enable-background:new    ;">
					<path style="fill:#F5B000;" d="M272.381,69.121l2.503-1.455c2.705,1.561,4.909,5.382,4.9,8.486l-2.504,1.455
						C277.289,74.503,275.085,70.682,272.381,69.121z"/>
				</g>
			</g>
		</g>
		<g>
			<path style="fill:#FFFFFF;" d="M250.746,72.644c0,1.814-1.274,2.55-2.845,1.643c-1.571-0.907-2.845-3.114-2.845-4.928
				c0-1.815,1.274-2.55,2.845-1.643C249.472,68.623,250.746,70.829,250.746,72.644z"/>
			<path style="fill:#FFFFFF;" d="M258.362,77.04c0,1.815-1.274,2.55-2.845,1.643c-1.571-0.907-2.845-3.113-2.845-4.928
				c0-1.815,1.274-2.55,2.845-1.643C257.088,73.02,258.362,75.226,258.362,77.04z"/>
			<path style="fill:#FFFFFF;" d="M265.978,81.437c0,1.815-1.274,2.55-2.845,1.643c-1.572-0.908-2.845-3.114-2.845-4.928
				c0-1.815,1.274-2.55,2.845-1.643C264.704,77.416,265.978,79.623,265.978,81.437z"/>
		</g>
	</g>
	<g>
		<g style="enable-background:new    ;">
			<g>
				<polygon style="fill:#F4413C;" points="217.606,112.738 220.11,111.283 220.418,111.839 217.914,113.294 				"/>
			</g>
			<g style="enable-background:new    ;">
				<defs>
					<path id="SVGID_00000052096142904110737310000014986977301445435009_" style="enable-background:new    ;" d="M197.587,76.516
						l2.503-1.455c0.789-0.459,1.881-0.397,3.081,0.296l-2.503,1.455C199.469,76.119,198.377,76.057,197.587,76.516z"/>
				</defs>
				<use xlink:href="#SVGID_00000052096142904110737310000014986977301445435009_"  style="overflow:visible;fill:#F4413C;"/>
				<clipPath id="SVGID_00000016757917661488668660000011429561893075489700_">
					<use xlink:href="#SVGID_00000052096142904110737310000014986977301445435009_"  style="overflow:visible;"/>
				</clipPath>
				<g style="clip-path:url(#SVGID_00000016757917661488668660000011429561893075489700_);enable-background:new    ;">
					<path style="fill:#F4413C;" d="M197.587,76.516l2.503-1.455c0.789-0.459,1.881-0.397,3.081,0.296l-2.503,1.455
						C199.469,76.119,198.377,76.057,197.587,76.516z"/>
				</g>
			</g>
			<g>
				<polygon style="fill:#F4413C;" points="227.757,118.977 230.261,117.522 229.907,128.982 227.403,130.436 				"/>
			</g>
			<g>
				<polygon style="fill:#F5554F;" points="227.769,118.605 227.757,118.977 227.403,130.436 217.914,113.294 217.606,112.738 				
					"/>
			</g>
			<g>
				<polygon style="fill:#F4413C;" points="227.769,118.605 230.272,117.15 230.261,117.522 227.757,118.977 				"/>
			</g>
			<g>
				<polygon style="fill:#F4413C;" points="217.606,112.738 220.11,111.283 230.272,117.15 227.769,118.605 				"/>
			</g>
			<g style="enable-background:new    ;">
				<defs>
					<path id="SVGID_00000042699085344848984070000002850616579821730200_" style="enable-background:new    ;" d="M234.956,118.75
						l-2.503,1.455c0.779-0.453,1.264-1.413,1.268-2.774l2.503-1.455C236.22,117.337,235.735,118.297,234.956,118.75z"/>
				</defs>
				<use xlink:href="#SVGID_00000042699085344848984070000002850616579821730200_"  style="overflow:visible;fill:#F4413C;"/>
				<clipPath id="SVGID_00000148626917967559631520000009985569026116809388_">
					<use xlink:href="#SVGID_00000042699085344848984070000002850616579821730200_"  style="overflow:visible;"/>
				</clipPath>
				<g style="clip-path:url(#SVGID_00000148626917967559631520000009985569026116809388_);enable-background:new    ;">
					<path style="fill:#F4413C;" d="M233.721,117.431l2.503-1.455c-0.004,1.361-0.489,2.321-1.268,2.774l-2.503,1.455
						C233.232,119.752,233.717,118.792,233.721,117.431z"/>
				</g>
			</g>
			<g>
				<polygon style="fill:#F4413C;" points="233.768,100.907 236.271,99.452 236.224,115.976 233.721,117.431 				"/>
			</g>
			<g>
				<polygon style="fill:#F4413C;" points="200.669,76.812 203.172,75.357 231.951,91.972 229.447,93.427 				"/>
			</g>
			<g>
				<path style="fill:#F5554F;" d="M229.447,93.427c2.384,1.377,4.328,4.743,4.321,7.48l-0.047,16.524
					c-0.008,2.74-1.964,3.855-4.348,2.478l-1.615-0.933l0.012-0.372l-10.163-5.867l0.308,0.556l-17.321-10
					c-2.384-1.377-4.328-4.744-4.32-7.483l0.047-16.525c0.008-2.736,1.965-3.851,4.348-2.475L229.447,93.427z"/>
			</g>
			<g style="enable-background:new    ;">
				<defs>
					<path id="SVGID_00000038403353607165107100000013289128207651761063_" style="enable-background:new    ;" d="M229.447,93.427
						l2.504-1.455c2.384,1.377,4.328,4.743,4.32,7.48l-2.503,1.455C233.775,98.17,231.831,94.803,229.447,93.427z"/>
				</defs>
				<use xlink:href="#SVGID_00000038403353607165107100000013289128207651761063_"  style="overflow:visible;fill:#F4413C;"/>
				<clipPath id="SVGID_00000182504926610520050880000000266250866776930970_">
					<use xlink:href="#SVGID_00000038403353607165107100000013289128207651761063_"  style="overflow:visible;"/>
				</clipPath>
				<g style="clip-path:url(#SVGID_00000182504926610520050880000000266250866776930970_);enable-background:new    ;">
					<path style="fill:#F4413C;" d="M229.447,93.427l2.504-1.455c2.384,1.377,4.328,4.743,4.32,7.48l-2.503,1.455
						C233.775,98.17,231.831,94.803,229.447,93.427z"/>
				</g>
			</g>
		</g>
		<g>
			<path style="fill:#E4E3EE;" d="M206.518,89.189l2.439,1.408v4.225l2.137,1.234v-4.224l2.439,1.408v10.627l-2.439-1.409v-3.876
				l-2.137-1.234v3.877l-2.439-1.409V89.189z"/>
			<path style="fill:#E4E3EE;" d="M214.515,93.806l2.439,1.408v10.627l-2.439-1.408V93.806z"/>
			<path style="fill:#E4E3EE;" d="M220.261,97.138l-0.264,7.615l-1.836-1.06l-0.213-7.891L220.261,97.138z M218.048,104.441
				c0-0.218,0.1-0.306,0.302-0.189l1.446,0.835c0.189,0.109,0.289,0.327,0.289,0.53v1.698c0,0.218-0.113,0.269-0.289,0.167
				l-1.446-0.835c-0.176-0.102-0.302-0.305-0.302-0.508V104.441z"/>
		</g>
	</g>
	<g>
		<path style="fill:#EBEBF1;" d="M311.512,180.969c-0.008-2.786-1.461-5.885-3.245-6.923l-0.808-0.469
			c-0.719-0.418-1.383-0.437-1.918-0.128c-1.9,1.112-3.722,2.98-5.105,5.308c-1.357,2.283-2.295,5.008-2.212,8.07
			c0.037,0.605,0.383,1.148,1.059,1.541l0.808,0.469c-0.02-0.324-0.023-0.653-0.013-0.987l0,0c-0.011,0.334-0.007,0.663,0.012,0.987
			c1.784,1.037,5.195,0.641,7.616-0.884C307.546,185.427,309.314,182.228,311.512,180.969z"/>
		<g style="enable-background:new    ;">
			<g style="enable-background:new    ;">
				<defs>
					<path id="SVGID_00000005977103278722229500000009382094057077919162_" style="enable-background:new    ;" d="M302.971,233.325
						c-0.125-0.081-0.3-0.179-0.418-0.27c-0.206-0.158-0.485-0.367-0.663-0.556c-0.552-0.588-0.667-0.73-1.093-1.492
						c-0.129-0.231-0.379-0.818-0.493-1.25c-0.143-0.545-0.209-0.794-0.286-1.711c0.037,0.615,0.383,1.163,1.06,1.557
						C301.188,231.421,301.892,232.698,302.971,233.325z"/>
				</defs>
				<use xlink:href="#SVGID_00000005977103278722229500000009382094057077919162_"  style="overflow:visible;fill:#B7B6E3;"/>
				<clipPath id="SVGID_00000062914932733831639910000013186951860262791058_">
					<use xlink:href="#SVGID_00000005977103278722229500000009382094057077919162_"  style="overflow:visible;"/>
				</clipPath>
				<g style="clip-path:url(#SVGID_00000062914932733831639910000013186951860262791058_);enable-background:new    ;">
					<path style="fill:#B7B6E3;" d="M302.971,233.325c-1.833-1.182-2.744-2.81-2.952-5.279c0.037,0.615,0.383,1.163,1.06,1.557
						C301.188,231.421,301.892,232.698,302.971,233.325z"/>
				</g>
			</g>
			<g style="enable-background:new    ;">
				<defs>
					<path id="SVGID_00000085931743137822352300000009446802048375210370_" style="enable-background:new    ;" d="M303.778,233.794
						l-0.808-0.469c-1.079-0.627-1.783-1.904-1.893-3.723l0.807,0.469C301.995,231.89,302.7,233.167,303.778,233.794z"/>
				</defs>
				<use xlink:href="#SVGID_00000085931743137822352300000009446802048375210370_"  style="overflow:visible;fill:#B7B6E3;"/>
				<clipPath id="SVGID_00000047061272532779054950000003092681659446704792_">
					<use xlink:href="#SVGID_00000085931743137822352300000009446802048375210370_"  style="overflow:visible;"/>
				</clipPath>
				<g style="clip-path:url(#SVGID_00000047061272532779054950000003092681659446704792_);enable-background:new    ;">
					<path style="fill:#B7B6E3;" d="M303.778,233.794l-0.808-0.469c-1.079-0.627-1.783-1.904-1.893-3.723l0.807,0.469
						C301.995,231.89,302.7,233.167,303.778,233.794z"/>
				</g>
			</g>
			<g style="enable-background:new    ;">
				<g style="enable-background:new    ;">
					<path style="fill:#919DD6;" d="M316.007,224.169c-0.566,7.051-7.309,12.359-12.229,9.626c-1.079-0.627-1.783-1.904-1.893-3.723
						c1.784,1.037,5.193,0.6,7.612-0.975c0.078,1.263,1.016,1.73,2.154,1.075c1.143-0.663,2.074-2.209,2.141-3.462
						C315.198,225.971,315.963,225.031,316.007,224.169z"/>
				</g>
			</g>
			<g style="enable-background:new    ;">
				<g>
					<path style="fill:#919DD6;" d="M313.792,226.71l1.56-43.264c1.418-0.714,2.182-1.638,2.213-2.49l-0.078,2.161l-0.078,2.161
						l-0.078,2.161l-0.078,2.16l-0.078,2.16l-0.078,2.16l-0.078,2.16l-0.078,2.16l-0.078,2.159l-0.078,2.16l-0.078,2.159
						l-0.078,2.159l-0.078,2.159l-0.078,2.159l-0.078,2.158l-0.078,2.159l-0.078,2.159l-0.078,2.158l-0.078,2.158l-0.078,2.158
						C315.977,225.014,315.212,225.964,313.792,226.71z"/>
				</g>
			</g>
			<g style="enable-background:new    ;">
				<g style="enable-background:new    ;">
					<path style="fill:#DAD9E8;" d="M299.282,188.368l1.796,41.234c-0.688-0.4-1.034-0.96-1.061-1.588l-0.09-2.06l-0.09-2.059
						l-0.09-2.06l-0.089-2.06l-0.09-2.06l-0.09-2.06l-0.09-2.061l-0.09-2.061l-0.09-2.061l-0.09-2.061l-0.09-2.061l-0.09-2.061
						l-0.09-2.061l-0.09-2.062l-0.09-2.062l-0.09-2.061l-0.09-2.062l-0.09-2.062l-0.09-2.062l-0.09-2.062
						C298.249,187.414,298.595,187.968,299.282,188.368z"/>
				</g>
			</g>
			<g>
				<g style="enable-background:new    ;">
					<path style="fill:#DAD9E8;" d="M307.528,173.537c-0.042,0.011-0.101-0.002-0.144-0.002c-0.691-0.377-1.328-0.384-1.844-0.086
						c0.196-0.105,0.458-0.245,0.653-0.349c0.262-0.118,0.611-0.278,0.878-0.384l0.649-0.221c0.291-0.075,0.679-0.174,0.973-0.233
						l0.635-0.087c0.312-0.016,0.73-0.031,1.042-0.026l0.607,0.056c0.317,0.058,0.739,0.148,1.05,0.233l0.559,0.203
						c0.219,0.104,0.513,0.242,0.725,0.36C311.835,172.144,309.795,172.25,307.528,173.537z"/>
				</g>
			</g>
			<g>
				<polygon style="fill:#DAD9E8;" points="301.885,230.071 301.078,229.602 299.282,188.368 300.09,188.837 				"/>
			</g>
			<g style="enable-background:new    ;">
				<g>
					<path style="fill:#C4C3EC;" d="M308.267,174.046l-0.882-0.511c2.267-1.287,4.451-1.391,5.927-0.533l0.808,0.469
						c-1.476-0.858-3.516-0.752-5.783,0.535L308.267,174.046z"/>
				</g>
			</g>
			<g>
				<path style="fill:#B7B6E3;" d="M311.512,180.969c2.202-1.281,3.982-0.13,3.841,2.477c-0.523,14.484-1.041,28.874-1.56,43.264
					c-0.067,1.253-0.998,2.799-2.141,3.462c-1.139,0.655-2.077,0.188-2.154-1.075c-0.594-13.655-1.193-27.399-1.791-41.144
					C307.546,185.427,309.314,182.228,311.512,180.969z"/>
			</g>
			<g style="enable-background:new    ;">
				<g>
					<path style="fill:#DAD9E8;" d="M307.706,187.952l1.791,41.144c-2.419,1.575-5.828,2.011-7.612,0.975l-1.795-41.234
						C301.874,189.874,305.285,189.477,307.706,187.952z"/>
				</g>
			</g>
			<path style="fill:#EBEBF1;" d="M298.223,186.827c-0.006-0.225-0.023-0.525-0.02-0.75c0.004-0.279,0.012-0.651,0.042-0.929
				c0.049-0.454,0.137-1.056,0.216-1.506c0.045-0.256,0.134-0.592,0.197-0.844c0.129-0.52,0.531-1.915,1.469-3.629
				c0.736-1.344,1.673-2.537,2.253-3.149c0.535-0.565,1.529-1.615,3.161-2.571c0.535-0.309,1.199-0.29,1.918,0.128
				c-4.748,2.741-8.495,9.52-8.177,14.79C298.606,187.974,298.26,187.432,298.223,186.827z"/>
			<path style="fill:#EBEBF1;" d="M307.706,187.952c-2.421,1.525-5.832,1.921-7.616,0.884c-0.318-5.27,3.429-12.049,8.177-14.79
				c1.784,1.037,3.237,4.137,3.245,6.923C309.314,182.228,307.546,185.427,307.706,187.952z"/>
			<path style="fill:#C4C3EC;" d="M317.562,179.724c-0.016-0.312-0.058-0.729-0.113-1.037c-0.205-1.159-0.446-1.743-0.696-2.287
				c-0.137-0.299-0.355-0.683-0.541-0.954c-0.206-0.299-0.521-0.669-0.763-0.938c-0.219-0.244-0.571-0.511-0.83-0.712
				c-0.141-0.11-0.35-0.227-0.5-0.324c-1.491-0.867-3.558-0.75-5.852,0.575c1.784,1.037,3.237,4.137,3.245,6.923
				c2.202-1.281,3.982-0.13,3.841,2.477c1.405-0.708,2.168-1.622,2.212-2.467C317.576,180.603,317.581,180.1,317.562,179.724z"/>
		</g>
		<path style="fill:#DAD9E8;" d="M311.512,180.969c-0.006-2.126-0.854-4.435-2.048-5.87c-0.002,0.034-0.002,0.079-0.005,0.113
			c-0.057,0.673-0.48,1.55-0.826,2.167c-0.162,0.27-0.324,0.54-0.486,0.811c-0.498,0.831-0.996,1.661-1.494,2.492
			c-0.613,1.024-1.228,2.047-1.841,3.07c-0.501,0.835-1.002,1.67-1.502,2.506c-0.136,0.227-0.265,0.462-0.41,0.684
			c-0.41,0.628-1.395,0.928-2.107,0.88c-0.636-0.044-1.281-0.343-1.706-0.823c-0.182-0.205-0.209-0.562-0.26-0.824
			c-0.07-0.364-0.101-0.735-0.103-1.105c-0.004-0.594,0.063-1.188,0.176-1.77c0.124-0.639,0.303-1.268,0.522-1.882
			c0.231-0.648,0.508-1.279,0.824-1.891c0.321-0.622,0.682-1.223,1.083-1.797c0.394-0.564,0.826-1.102,1.299-1.601
			c0.451-0.475,0.94-0.916,1.471-1.301c0.496-0.359,1.031-0.67,1.6-0.898c0.538-0.216,1.107-0.357,1.686-0.393
			c-0.69-0.377-1.327-0.384-1.843-0.086c-0.236,0.138-0.541,0.339-0.772,0.486l-0.616,0.448c-0.2,0.156-0.456,0.376-0.651,0.537
			l-0.563,0.522c-0.172,0.169-0.391,0.404-0.559,0.578l-0.507,0.582c-0.15,0.181-0.339,0.43-0.485,0.614l-0.45,0.63
			c-0.13,0.192-0.294,0.456-0.42,0.651l-0.39,0.669c-0.112,0.204-0.252,0.482-0.36,0.689l-0.326,0.702
			c-0.094,0.217-0.209,0.512-0.298,0.731l-0.256,0.728c-0.075,0.233-0.162,0.547-0.231,0.782l-0.177,0.747
			c-0.052,0.253-0.106,0.593-0.15,0.847l-0.086,0.756c-0.021,0.278-0.031,0.65-0.042,0.929c0.006,0.225,0.014,0.525,0.02,0.75
			c0.037,0.605,0.383,1.148,1.059,1.54l0.808,0.47c1.784,1.037,5.195,0.641,7.616-0.884
			C307.546,185.427,309.314,182.228,311.512,180.969z"/>
	</g>
	<g>
		<g style="enable-background:new    ;">
			<g>
				<polygon style="fill:#919DD6;" points="278.694,250.794 278.683,254.811 266.555,247.809 266.566,243.793 				"/>
			</g>
			<g style="enable-background:new    ;">
				<defs>
					<path id="SVGID_00000163759019025381940410000018121216093193714609_" style="enable-background:new    ;" d="M279.605,252.067
						l-0.011,4.017c0.001-0.471-0.32-0.931-0.911-1.272l0.011-4.017C279.285,251.136,279.607,251.596,279.605,252.067z"/>
				</defs>
				<use xlink:href="#SVGID_00000163759019025381940410000018121216093193714609_"  style="overflow:visible;fill:#919DD6;"/>
				<clipPath id="SVGID_00000096022462185386126180000011900766843759809924_">
					<use xlink:href="#SVGID_00000163759019025381940410000018121216093193714609_"  style="overflow:visible;"/>
				</clipPath>
				<g style="clip-path:url(#SVGID_00000096022462185386126180000011900766843759809924_);enable-background:new    ;">
					<path style="fill:#919DD6;" d="M279.605,252.067l-0.011,4.017c0.001-0.471-0.32-0.931-0.911-1.272l0.011-4.017
						C279.285,251.136,279.607,251.596,279.605,252.067z"/>
				</g>
			</g>
			<g style="enable-background:new    ;">
				<defs>
					<path id="SVGID_00000006685885086141273680000007316434612104087966_" style="enable-background:new    ;" d="M289.673,254.338
						l-0.011,4.017c-0.004,1.362-0.45,2.723-1.338,4.003l0.011-4.016C289.224,257.061,289.67,255.7,289.673,254.338z"/>
				</defs>
				<use xlink:href="#SVGID_00000006685885086141273680000007316434612104087966_"  style="overflow:visible;fill:#919DD6;"/>
				<clipPath id="SVGID_00000176730063203619828880000007412362682859943609_">
					<use xlink:href="#SVGID_00000006685885086141273680000007316434612104087966_"  style="overflow:visible;"/>
				</clipPath>
				<g style="clip-path:url(#SVGID_00000176730063203619828880000007412362682859943609_);enable-background:new    ;">
					<path style="fill:#919DD6;" d="M289.673,254.338l-0.011,4.017c-0.004,1.362-0.45,2.723-1.338,4.003l0.011-4.016
						C289.224,257.061,289.67,255.7,289.673,254.338z"/>
				</g>
			</g>
			<g style="enable-background:new    ;">
				<defs>
					<path id="SVGID_00000039131367885612071330000010851601663794571158_" style="enable-background:new    ;" d="M252.378,258.251
						l0.012-4.017c-0.008,2.781,1.827,5.566,5.502,7.687c5.474,3.161,13.478,3.954,20.195,2.376l-0.011,4.017
						c-6.717,1.578-14.721,0.785-20.195-2.375C254.205,263.817,252.37,261.032,252.378,258.251z"/>
				</defs>
				<use xlink:href="#SVGID_00000039131367885612071330000010851601663794571158_"  style="overflow:visible;fill:#919DD6;"/>
				<clipPath id="SVGID_00000027568164630959891400000016517165265982576550_">
					<use xlink:href="#SVGID_00000039131367885612071330000010851601663794571158_"  style="overflow:visible;"/>
				</clipPath>
				<g style="clip-path:url(#SVGID_00000027568164630959891400000016517165265982576550_);enable-background:new    ;">
					<path style="fill:#919DD6;" d="M278.086,264.297l-0.011,4.017c-1.009,0.237-2.046,0.421-3.1,0.55l0.011-4.016
						C276.04,264.718,277.078,264.534,278.086,264.297z"/>
					<path style="fill:#919DD6;" d="M274.986,264.848l-0.011,4.016c-5.964,0.736-12.443-0.24-17.096-2.926
						c-3.675-2.122-5.509-4.906-5.502-7.687l0.012-4.017c-0.008,2.781,1.827,5.566,5.502,7.687
						C262.543,264.608,269.023,265.584,274.986,264.848z"/>
				</g>
			</g>
			<g>
				<polygon style="fill:#919DD6;" points="326.491,292.243 326.479,296.26 278.075,268.314 278.086,264.297 				"/>
			</g>
			<g style="enable-background:new    ;">
				<defs>
					<path id="SVGID_00000032646383468715034390000005092037178641799554_" style="enable-background:new    ;" d="M343.895,292.977
						l-0.011,4.016c0.002-0.878-0.577-1.758-1.738-2.428c-2.303-1.329-6.028-1.329-8.316,0c-1.139,0.662-1.708,1.527-1.711,2.394
						l0.011-4.017c0.003-0.867,0.572-1.733,1.711-2.394c2.288-1.33,6.013-1.33,8.316,0
						C343.318,291.219,343.897,292.099,343.895,292.977z"/>
				</defs>
				<use xlink:href="#SVGID_00000032646383468715034390000005092037178641799554_"  style="overflow:visible;fill:#919DD6;"/>
				<clipPath id="SVGID_00000161621003585773762850000012838097802102072734_">
					<use xlink:href="#SVGID_00000032646383468715034390000005092037178641799554_"  style="overflow:visible;"/>
				</clipPath>
				<g style="clip-path:url(#SVGID_00000161621003585773762850000012838097802102072734_);enable-background:new    ;">
					<path style="fill:#919DD6;" d="M343.895,292.977l-0.011,4.016c0.002-0.878-0.577-1.758-1.738-2.428
						c-1.468-0.848-3.515-1.155-5.399-0.921l0.012-4.017c1.884-0.233,3.93,0.074,5.399,0.922
						C343.318,291.219,343.897,292.099,343.895,292.977z"/>
					<path style="fill:#919DD6;" d="M336.758,289.627l-0.012,4.017c-1.07,0.132-2.088,0.44-2.917,0.921
						c-0.449,0.261-0.81,0.554-1.082,0.866l0.011-4.017c0.272-0.312,0.633-0.605,1.082-0.866
						C334.67,290.067,335.687,289.76,336.758,289.627z"/>
					<path style="fill:#919DD6;" d="M332.759,291.415l-0.011,4.017c-0.418,0.479-0.627,1.003-0.629,1.528l0.011-4.017
						C332.132,292.418,332.341,291.894,332.759,291.415z"/>
				</g>
			</g>
			<g style="enable-background:new    ;">
				<defs>
					<path id="SVGID_00000106842897565273548630000008502648872654110641_" style="enable-background:new    ;" d="M349.596,292.99
						l-0.012,4.017c-0.005,1.706-1.126,3.41-3.366,4.711c-4.51,2.621-11.841,2.621-16.381,0c-2.285-1.319-3.424-3.048-3.419-4.776
						l0.011-4.017c-0.005,1.728,1.134,3.457,3.419,4.776c4.539,2.621,11.871,2.621,16.381,0
						C348.469,296.4,349.591,294.696,349.596,292.99z"/>
				</defs>
				<use xlink:href="#SVGID_00000106842897565273548630000008502648872654110641_"  style="overflow:visible;fill:#919DD6;"/>
				<clipPath id="SVGID_00000037675004842642124590000007030607057891677116_">
					<use xlink:href="#SVGID_00000106842897565273548630000008502648872654110641_"  style="overflow:visible;"/>
				</clipPath>
				<g style="clip-path:url(#SVGID_00000037675004842642124590000007030607057891677116_);enable-background:new    ;">
					<path style="fill:#919DD6;" d="M349.596,292.99l-0.012,4.017c-0.003,1.033-0.415,2.065-1.237,3.008l0.012-4.017
						C349.18,295.056,349.592,294.023,349.596,292.99z"/>
					<path style="fill:#919DD6;" d="M348.358,295.998l-0.012,4.017c-0.536,0.614-1.245,1.19-2.129,1.703
						c-1.635,0.95-3.64,1.556-5.749,1.817l0.011-4.017c2.109-0.261,4.114-0.867,5.749-1.817
						C347.113,297.188,347.823,296.612,348.358,295.998z"/>
					<path style="fill:#919DD6;" d="M340.481,299.519l-0.011,4.017c-3.709,0.46-7.738-0.146-10.633-1.817
						c-2.285-1.319-3.424-3.048-3.419-4.776l0.011-4.017c-0.005,1.728,1.134,3.457,3.419,4.776
						C332.743,299.373,336.772,299.978,340.481,299.519z"/>
				</g>
			</g>
			<g>
				<path style="fill:#C4C3EC;" d="M346.176,288.213c4.539,2.621,4.56,6.869,0.053,9.489c-4.51,2.621-11.842,2.621-16.381,0
					c-2.586-1.493-3.704-3.511-3.358-5.458l-48.404-27.946c-6.717,1.578-14.721,0.785-20.195-2.376
					c-4.785-2.762-6.45-6.65-4.99-10.188l12.128,7.002c0.78,0.45,1.916,0.628,2.979,0.463l7.372-1.146
					c1.062-0.165,1.887-0.645,2.169-1.26l1.955-4.274c0.282-0.616-0.029-1.273-0.809-1.724l-12.128-7.002
					c6.104-0.858,12.819,0.094,17.605,2.857c5.474,3.16,6.867,7.796,4.164,11.692l48.405,27.946
					C340.1,286.081,343.59,286.72,346.176,288.213z M333.865,295.368c2.306,1.331,6.031,1.331,8.322,0
					c2.288-1.33,2.276-3.488-0.03-4.819c-2.303-1.33-6.028-1.33-8.316,0C331.55,291.88,331.562,294.038,333.865,295.368z"/>
			</g>
		</g>
	</g>
	<g>
		<path style="fill:#F3D249;" d="M170.902,130.228l24.691,14.255c2.319,1.339,4.216,4.635,4.216,7.324v9.756
			c0.294,3.411,1.568,6.944,3.654,9.329c-2.549,0.245-5.821-2.519-8.76-6.253l-23.8-13.742c-2.319-1.338-4.216-4.634-4.216-7.324
			v-10.89C166.687,129.995,168.584,128.889,170.902,130.228z"/>
		<g>
			<polygon style="fill:#EBEBF1;" points="184.551,152.544 195.48,158.854 195.48,156.46 184.551,150.15 			"/>
			<polygon style="fill:#EBEBF1;" points="169.468,137.196 169.469,139.59 195.48,154.608 195.48,152.214 			"/>
		</g>
	</g>
</g>
</svg>
